<?xml version="1.0" encoding="UTF-8"?>
<svg id="Capa_2" data-name="Capa 2" xmlns="http://www.w3.org/2000/svg" viewBox="0 0 293.5 310.25">
  <defs>
    <style>
      .cls-1 {
        fill: #4e2c1d;
      }

      .cls-2 {
        fill: #ffefdb;
      }
    </style>
  </defs>
  <g id="Capa_2-2" data-name="Capa 2">
    <g>
      <g>
        <path class="cls-2" d="M129.57,310.25c-4.78,0-9.52-.18-14.21-.51-16.96-1.56-31.23-4.54-43.89-9.12-3.84-1.51-7.19-2.88-10.46-4.43-3.96-1.85-7.28-4.04-9.73-5.73-3.59-2.29-6.86-4.79-10.09-7.71-11.11-9.96-18.64-22.73-21.73-36.93-1.44-6.37-1.97-13.25-1.53-20.33l.13-1.5c.15-1.74.32-3.44.67-5.29,2.18-14.5,9.3-27.9,20.13-37.86.19-.79.37-1.58.54-2.36l2.4-12.18c.62-4.38.98-8.03,1.05-11.09,0-.67,0-1.53.04-2.4l-.05-.89c0-4.4-.15-8.43-.45-12.15-.05-.82-.12-1.62-.19-2.38-7.72-4.29-14.79-9.72-20.76-15.97l-2.53-2.29-.28-.76c-4.58-5.3-8.46-11.29-11.58-17.83C-3.34,78.74-2.17,53.66,10.09,35.12c6.32-9.75,15.19-17.14,26.3-21.88,7.94-3.85,17.3-5.88,27.09-5.88,7.28,0,14.38,1.1,20.94,3.24C95.59,3.79,109.94,0,125.1,0c2.4,0,4.82.1,7.23.29,13.46,1.19,25.36,5.48,34.53,12.34,5.29-1.79,11-2.7,17.05-2.7,9.99,0,20.77,2.59,30.39,7.3l1.15.59c1.44.76,2.8,1.49,4.18,2.34,6.9,4.08,13.03,9.66,17.94,16.43,17.07,23.1,16.88,57.21-.52,81.02-5.55,7.76-13.34,14.29-21.99,18.53-1.25,5.07-2.37,12.75-2.57,24.26v8.72s-.08,1.23-.08,1.23l-.07,9.47c3.91,3.45,7.41,7.5,10.46,12.12,6.05,9.39,9.69,20.51,10.61,32.3,1.19,13.3-1.05,26.89-6.5,39.13-3.13,6.92-7.13,13.02-11.91,18.21-5.42,5.98-12.12,10.18-17.35,13.17-12.58,7.37-28.01,12.2-45.73,14.25l-5.45.46c-5.37.5-11.11.77-16.89.77Z"/>
        <g>
          <path class="cls-1" d="M226.09,44.91c-3.74-5.16-8.48-9.48-13.97-12.72-1.33-.83-2.66-1.5-4.07-2.24-12.23-5.99-30.02-9.23-43.82-.5-7.23-8.48-18.88-13.8-33.1-15.05-17.05-1.41-34.34,3.24-44.82,12.22-13.31-6.65-31.35-6.82-44.07-.5-8.57,3.58-15.47,9.23-20.37,16.8-9.56,14.47-10.31,34.26-2.08,51.56,2.5,5.24,5.65,10.23,9.65,14.8.5.58.91,1.08,1.41,1.5.08.25.25.33.5.58,6.57,6.99,14.72,12.72,23.78,16.71.58,3.41,1.08,6.82,1.33,10.56.33,4.07.5,8.48.5,13.31l.08.75c-.08.91-.08,1.91-.08,2.83-.08,4.07-.58,8.57-1.33,13.64-.75,3.66-1.5,7.73-2.41,12.22-.42,2-.91,3.99-1.41,5.99l-.25,1.25c-10.15,7.9-16.96,19.63-18.96,32.76-.33,1.75-.42,3.33-.58,4.99-.33,5.49,0,10.98,1.25,16.47,2.49,11.48,8.57,21.54,17.38,29.44,2.5,2.25,5.16,4.32,8.15,6.24l.5.33c2.41,1.66,4.91,3.24,7.73,4.57,2.99,1.41,6.07,2.66,9.23,3.91,11.72,4.24,24.78,6.9,40.08,8.32,9.48.67,19.21.67,28.94-.25l4.99-.42c15.8-1.83,29.27-5.99,40.33-12.47,4.66-2.66,9.98-6.07,13.97-10.48,3.91-4.24,6.99-9.06,9.4-14.39,4.41-9.9,6.32-21.12,5.32-32.27-.75-9.56-3.66-18.38-8.32-25.61-3.41-5.16-7.57-9.48-12.47-12.72-.17-1.5-.25-3.58-.33-6.15,0-3.49.08-7.48.08-11.06l.08-1.16v-8.48c.25-14.8,2-26.53,5.24-34.51l.08-.08c8.57-2.83,16.55-8.73,21.95-16.3,13.8-18.88,14.14-45.9.5-64.36ZM198.73,199.17c6.32,6.49,10.39,16.13,11.31,26.94,1.41,16.55-4.32,32.93-14.64,41.75-6.49,5.49-14.22,9.81-23.2,12.89-9.23,3.16-19.54,4.99-31.68,5.74-13.06.75-26.36.17-39.58-1.91-13.8-2.16-24.61-5.74-34.01-11.23-2.33-1.33-4.57-2.83-6.74-4.41-1-.83-2.08-1.66-3.08-2.49-.33-.25-.58-.58-.91-.83-.66-.66-1.33-1.5-1.83-1.75-9.56-9.06-14.64-22.95-13.72-36.92.91-13.31,6.99-24.78,17.13-32.27l.17-.08.42-.33c.25-.25.58-.5.75-1,.25-.33.42-.75.5-1.16l.25-1c.66-2.58,1.25-5.24,1.83-7.9.91-4.66,1.75-8.73,2.41-12.72.25-1.33.42-2.66.66-3.99,21.12-7.48,41.91-11.64,61.7-12.06,20.37-.5,40.25,2.83,57.63,9.73,1.91.75,3.74,1.58,5.57,2.33l-.17,8.07c0,2.41-.08,4.66.08,6.74,0,2.91.08,5.16.33,6.99l.08.83c0,.17-.08.33-.08.5-.08.42,0,.92,0,1.16.33,1.41,1.17,2.58,2.25,3.16,2.41,1.41,4.66,3.24,6.57,5.24ZM218.36,104.37c-6.24,9.73-17.21,15.97-29.11,16.55h-3.24c-.66,0-1.5.25-2,.83-.83.67-1.16,1.91-.91,2.99.42,1.08,1.16,1.91,2.25,2,1.08.33,2,.42,2.91.5,1.83.17,3.66.33,5.57.17-2.41,7.98-3.82,17.8-4.16,29.69-1.33-.58-2.83-1.16-4.24-1.75-17.88-6.9-38.42-10.23-59.21-9.65-3.74.17-7.4.25-11.14.67-15.97,1.41-32.6,4.99-49.48,10.64,0-.42.08-.83,0-1.33l.08-.91v-2.83c0-4.91-.25-9.56-.5-14.05-.33-3.24-.66-6.15-1.25-9.15,18.96-5.66,37.59-8.98,55.3-9.9,19.46-1.08,39.17.58,58.71,4.99,1,.25,2-.17,2.74-.91.5-.75.75-1.66.5-2.58-.33-.83-1-1.5-1.75-1.75-1.58-.5-2.99-.91-4.49-1.41,6.4-6.15,10.89-13.97,12.72-22.29.25-1.58-.66-3.08-2.08-3.49-1.5-.42-3.16.42-3.66,2-2.5,8.48-8.32,15.97-16.05,20.71-.25.08-.42.25-.5.42-10.48-2.49-21.37-4.07-32.51-4.57,2-7.4,1.75-15.63-1.08-22.62-.58-1.41-2.08-2.08-3.58-1.75-1.58.42-2.58,2-2.16,3.66,1.75,6.82.75,14.47-2.66,20.54-14.3-.08-28.94,1.66-43.41,4.99-7.48-7.98-11.06-15.13-11.23-22.29-.08-1.66-1.33-2.99-2.99-3.08-.92-.17-1.75.25-2.41.67-.66.58-1,1.41-1,2.25-.42,5.07.75,10.73,3.24,16.22,1.33,2.83,2.83,5.82,4.91,8.57-3.41,1-6.99,2-10.31,3.08-3.74-1.66-7.48-3.74-10.89-6.15l-.33-.25c-7.65-5.57-14.05-12.47-18.29-20.21-.58-1.08-1.17-2.33-1.66-3.49-6.82-14.47-6.07-30.1,1.75-41.91,7.82-11.56,21.2-17.63,36.76-16.8,7.4.5,14.64,3.16,20.37,7.23,2.25,1.58,4.16,3.33,5.9,5.41,2.74,3.08,4.66,6.57,5.9,10.31v.42l.5,1.08c.5,1.16,1.75,1.66,3.08,1.5,1.33-.33,2.25-1.5,2.25-2.91-.25-5.16-1.66-9.98-4.16-14.39-1.75-2.99-4.07-5.65-6.74-7.98,4.82-3.41,11.06-5.82,18.29-7.23,14.72-2.83,35.93-1.5,46.32,11.56l.17.25c.17.17.33.33.42.58,1.33,1.75,2.49,3.74,3.41,5.74.42,1.33.91,2.66,1.16,3.99l.17.83c.5,2,.83,4.16,1.08,6.65,0,.42.08.83.33,1.16l.25.17c.33.5.83.75,1.41.91.75.17,1.58,0,2.16-.5.42-.42.75-.83.91-1.41.66-3.08.91-6.07.66-9.06-.17-1.75-.5-3.41-1-5.24-.25-1-.66-1.91-1.25-3.08,10.64-5.82,25.03-2.74,34.26,1.91,1.66.75,3.24,1.66,4.57,2.58,5.66,3.66,10.06,8.65,13.31,14.72,7.73,14.72,6.57,33.85-2.91,47.82Z"/>
          <path class="cls-1" d="M158.57,235.79c-.75-.5-1.66-.58-2.58-.17l-.66.25c-16.38,6.9-38.42,6.99-56.13.17l-.42-.08c-.83-.25-1.5-.08-2,.25-.75.5-1.25,1.41-1.16,2.33v.33c1.75,19.04,16.22,29.6,28.94,31.43,1.33.17,2.41.25,3.33.25h.42c7.57.17,14.72-2.58,20.12-7.65,5.74-5.41,9.48-13.39,10.98-23.04l.17-1.58c.17-1-.25-1.91-1-2.5ZM128.88,265.48h-.58c-6.99-.17-14.64-3.41-20.12-9.56,5.99-4.16,13.06-5.66,19.04-4.16,5.41,1.33,9.98,5.07,13.39,10.56-3.74,2.16-7.9,3.16-11.73,3.16Z"/>
          <path class="cls-1" d="M140.6,228.37c-.17.75-.75,1.91-2.91,2.08h-.25c-.75-.08-1.41-.5-1.83-.83-3.74-3.41-10.64-3.16-14.55-.83-.25.17-.5.42-.75.66-.75.58-1.66,1.33-2.83,1.33-.25,0-.58-.08-.83-.17l-.58-.33c-.67-.58-1-1.25-1-2.08-.08-1.75,1.41-3.33,2.74-4.57,4.82-4.41,13.14-5.16,18.54-1.66,1.41.75,4.66,3.99,4.24,6.4Z"/>
          <path class="cls-1" d="M165.47,181.89c-.08.67-.33,1.16-.83,1.58-.5.33-1.16.5-1.75.42-1.08-.08-1.83-1-2-2-.58-3.41-2.99-6.15-6.49-7.32l-.25-.08c-3.99-1.25-8.23-.33-10.81,2.41-.58.66-1.58.91-2.41.66-.25-.08-.5-.25-.67-.42h-.08c-1-.75-1.25-2-.58-3.08,2-3.74,5.82-6.07,10.56-6.4,5.07-.42,10.06,1.66,12.89,5.49,2,2.41,2.91,5.65,2.41,8.73Z"/>
          <path class="cls-1" d="M161.56,203.26v1.83c.17,4.74-.42,8.65-1.66,12.14-.92,2.66-2.41,4.57-4.24,5.57-1.08.58-2.33.92-3.58.83-.42,0-.75,0-1.08-.08-3.16-.5-5.07-2.99-5.99-4.41-3.24-5.24-3.16-12.56-2.74-18.29.17-1.58.33-3.16.58-4.74.5-2.83,1.41-6.49,4.49-8.57,2.91-2,6.98-1.75,9.56.75,2,1.91,3.24,4.74,3.91,8.4l.25,1.83-1.83.17c-1.08.08-1.91.91-2.08,2-.17,1.5.75,2.66,2,2.83.17,0,.33-.08.5-.08l1.91-.17Z"/>
          <path class="cls-1" d="M109.67,204.84c.08,4.74-.5,8.73-1.66,12.14-1,2.66-2.41,4.57-4.32,5.57-1.08.66-2.25.91-3.49.91-.42,0-.75,0-1.16-.17-3.08-.5-5.07-2.91-5.99-4.32-3.24-5.32-3.16-12.56-2.66-18.38.08-1.5.25-2.99.58-4.66.42-2.91,1.33-6.49,4.41-8.65,2.99-2,6.98-1.66,9.56.83,2,1.91,3.33,4.74,3.91,8.4l.33,1.75-1.83.17c-1.08.08-1.91.91-2.08,2.08-.17,1.5.75,2.58,2,2.74h.5l1.83-.17.08,1.75Z"/>
          <path class="cls-1" d="M112.83,174.82c.25.58.25,1.16,0,1.75-.25.58-.66,1-1.25,1.25-1,.42-2.08.08-2.74-.67-2.25-2.66-5.65-3.83-9.31-3.08l-.33.08c-3.99,1-7.15,3.91-7.98,7.65-.17.83-.83,1.58-1.75,1.75-.25.08-.5.08-.83.08v-.08c-1.25-.08-2.08-1.08-2.08-2.25-.17-4.24,1.91-8.23,5.74-10.98,4.24-2.91,9.56-3.66,13.97-1.91,2.91,1.16,5.41,3.49,6.57,6.4Z"/>
        </g>
      </g>
      <g>
        <path class="cls-2" d="M279.24,218.5c3.89,7.61,5.45,16.27,4.8,25.29-1.34,18.51-12.86,34.82-29.46,41.7-.26.6-.46,1.05-.64,1.34-1.4,2.94-3.58,5.75-6.28,8.11-5.01,4.38-11.39,7.19-18.1,7.94-2.1.23-4.18.3-6.14.18l-1.45-.08h-.1c-10.3-.93-19.33-5.57-24.77-12.7-3.9-5.12-5.75-11.21-5.14-16.86-.35-.19-.74-.38-1.09-.56-8.63-4.51-14.29-13.84-14.43-23.81,0-1.71.14-3.88.7-6.11-3.85-6.31-4.9-13.72-3.07-20.88,2.13-8.17,7.93-15.59,15.57-19.79,3.5-2.02,7.56-3.32,11.71-3.83-2.24-9.75-2.72-21.89,3.38-33.23,4.77-8.71,14.57-17.28,25.84-16.75h.1c2.68.25,4.56.68,6.42,1.41,6.22,2.37,11.06,7.47,13.62,14.3,3.93-3.28,8.78-5.96,14.57-6.85,1.68-.21,3.29-.28,4.95-.23l.93.08c9.63.86,20.47,7.33,22.13,19.57,1.37,10.87-4.33,20.01-8.93,27.34l-1.33,2.16c-1.89,3.15-3.8,6.56-4.47,9.98l-.08.93c.09.16.76,1.37.76,1.37Z"/>
        <path class="cls-1" d="M222.67,294.2c-7.85-.7-14.63-4.07-18.59-9.25-2.57-3.37-3.79-7.28-3.35-10.72.18-1.5.74-3.19,1.75-3.45.06,0,.12,0,.17,0,.78.07,1.11.65,1.28,1.13.23.6.39,1.21.56,1.8.27.98.55,2,1.05,2.98.97,2.07,2.46,3.95,4.42,5.52,3.6,2.82,8.46,4.61,13.7,5.08l1.23.08c5.13.23,9.98-1.03,14.12-3.66.57-.32,1.12-.73,1.67-1.2l3.19-2.67-4.11.61c-2.23.33-4.61.44-7.07.33-.58-.03-1.16-.07-1.75-.13-.81-.07-1.63-.17-2.44-.3-3.85-.65-6.82-1.52-9.34-2.73-1.88-.85-4.6-2.08-5.17-3.82l-.15-.67.42-.31c.31-.11.65-.16,1.06-.17.35.04.81.13,1.28.22l1.96.5c1.07.28,2.15.57,3.26.8,1.67.34,3.37.6,5.07.76.6.05,1.19.1,1.79.12,2.19.08,4.17.03,6.05-.16,8.94-.79,17.3-4.47,23.54-10.37,10.5-9.99,13.88-26.78,8.63-42.78-.39-1.13-.85-2.49-.84-3.48-.16-1.1-.23-1.88-.29-2.43-.25-4.3.85-8.97,3.24-14.05.91-1.97,1.95-3.88,2.99-5.8,1.53-2.81,3.11-5.72,4.26-8.8,1.02-2.62,2.08-5.66,1.48-8.56-.59-2.66-2.78-4.66-5.99-5.51-.67-.18-1.36-.24-1.99-.3-4.9-.19-9.04,3.01-11.66,5.74-3.17,3.29-5.9,7.48-8.11,12.45-1.8,4.02-3.12,8.38-3.91,12.96-.43,2.46-.59,4.92-.75,7.31l-.2,2.82.93.26c5.56,1.52,10.11,5.19,12.47,10.06,1.75,3.65,2.29,7.56,1.58,11.3-.3,1.83-1.67,4.67-2.42,4.65-.13-.01-.38-.19-.65-.48-.41-.47-.36-1.52-.3-2.45l.04-.9c-.02-2.36-.37-4.52-1.03-6.44-1.76-5.05-5.92-8.74-11.1-9.88-.74-.18-1.47-.25-2.19-.31-4.45-.22-8.29,1.71-11.84,3.72-4.54,2.56-8.52,4.54-13.15,5.86l-.77.21c-1.95.53-4.17,1.12-5.93,2.5-1.63,1.25-3.13,3.51-.93,7.13,2.16,3.31,6.19,5.45,11.08,5.89,0,0,.76.05.77.05.55.05,1.15.04,1.74-.03,4.2-.16,8.63-1.85,13.85-5.33,1.09-.68,2.13-1.45,3.18-2.21.73-.53,1.45-1.06,2.2-1.57.65-.42,1.44-.93,1.95-.92v.03s.7.41.7.41c.35.7-.11,1.56-.97,2.73-.84,1.11-1.9,2.29-3.23,3.62l-1.92,1.92,2.71.08c.93.03,1.86,0,2.78-.08,1.31-.09,2.7-.34,4.12-.73.93-.23,1.49-.37,1.9-.33h.11c.34.04.51.11.68.22l.06.08.17.09v.04c.36.96-.47,2.01-1.36,2.68-1.21.89-2.62,1.53-4.16,1.87-1.3.31-2.72.43-4.12.35l-.62-.05c-1.3-.12-2.63-.37-3.97-.76-.48-.14-1-.34-1.53-.53l-.54-.2-.49.31c-2.37,1.48-4.64,2.56-6.94,3.28-2.61.78-5.26,1.11-7.88.97l-.91-.07c-3.89-.35-7.46-1.59-10.33-3.59l-.44-.31-.52.14c-2.15.56-4.33.8-6.47.71l-1.39-.12c-2.48-.27-4.98-1.04-7.4-2.29l-2.05-1.05.36,2.28c.17,1.12.35,2.22.68,3.33,1.05,3.44,3.11,6.42,5.82,8.37,2.25,1.64,5.03,2.76,8,3.26.81.12,1.59.19,2.38.26h.08c.71.07,1.42.13,2.14.25.68.06,1.16.22,1.51.51l.02.36.4.44c-.48,2.36-4.26,3.32-6.53,3.58-.81.07-1.7.09-2.58.06l-.84-.05c-2.35-.21-4.79-.96-7.05-2.18-5.86-3.06-9.7-9.42-9.79-16.21,0-1.78.28-4.41,1.5-6.71l.38-.72-.54-.61c-.71-.8-1.37-1.64-1.93-2.53-2.62-4.24-3.32-9.12-2.03-14.1,1.53-5.88,5.75-11.23,11.3-14.32,3.63-2.06,7.97-3.09,12.21-2.91l.87.06c.88.08,1.76.21,2.63.4.44.09,1.19.3,2.07.62l2.44.89-.95-2.42c-.5-1.28-1-2.6-1.45-3.92-3.08-8.85-5.44-21.79.74-33.25,3.31-6.11,10.25-12.51,17.64-12.15h.13c1.55.15,2.62.4,3.69.81,3.93,1.51,7.01,4.9,8.68,9.54,1.47,4.16,1.36,8.71,1.25,13.12l-.04,1.78c-.04.41-.03.89-.02,1.37l-.03,6.14,2.27-5.04c.51-1.12,1.06-2.19,1.6-3.21,2.96-5.26,9.36-14.32,18.92-15.74,1.07-.15,2.2-.19,3.27-.14l.73.05c6.05.54,13.01,4.52,14.02,11.98.95,7.67-3.64,15.03-7.68,21.53l-1.34,2.17c-2.39,3.92-4.72,8.2-5.63,12.98-.23,1.43-.33,2.89-.31,4.62v.37s.21.3.21.3c.47.67.86,1.41,1.21,2.03l.5.9c2.98,5.86,4.28,12.93,3.72,20.37-1.12,15.41-10.77,28.92-24.59,34.43-.94.37-1.98.73-2.98,1.05l-.92.29.11.96c.12,1.11-.61,2.61-.85,3.11-.94,1.9-2.4,3.78-4.23,5.42-3.59,3.13-8.29,5.17-13.23,5.74-1.56.17-3.17.22-4.63.13l-1.26-.09ZM212.26,212.2c-3.28-.15-6.1.03-8.61.55-7.14,1.59-13.1,7.25-14.51,13.75-1.58,7,3.66,13.11,9.4,15.3,1.12.43,2.25.75,3.39.97l2.3.43-1.03-2.1c-1.15-2.33-2.18-5.89-.59-9.56,1.49-3.31,4.66-5.99,8.92-7.54,1.36-.49,2.75-.87,4.14-1.26.84-.23,1.68-.46,2.52-.72,1.23-.38,2.47-.92,3.65-1.45l1.77-.82-1.54-1.18c-1.4-1.08-2.65-2.29-3.29-2.94-.74-.72-1.35-1.46-1.91-2.23l-.22-.29-.49-.19c-1.34-.48-2.46-.62-3.5-.71h-.08s-.32,0-.32,0ZM229.82,164.28c-2.22-.15-4.55,1.19-6.09,2.34-10.63,7.96-8.95,23.52-7.73,29.84.76,3.91,2.1,9.68,4.92,14.73,1.09,2.01,2.54,3.92,4.55,5.99l.4.37.6.49.77-.29c3.55-1.84,6.79-3.4,10.39-3.97.57-.1,1.15-.14,1.74-.18l1.39-.1-.33-1.35c-1.81-7.36-2.29-15.21-2.65-23.27-.09-1.79-.08-3.62-.08-5.45.01-3.9.02-7.93-.88-11.72-.53-2.17-1.92-5.97-5.33-7.16-.41-.15-.8-.23-1.18-.27h-.07s-.4-.01-.4-.01Z"/>
      </g>
    </g>
  </g>
</svg>