<?xml version="1.0" encoding="UTF-8"?>
<svg id="Capa_2" data-name="Capa 2" xmlns="http://www.w3.org/2000/svg" xmlns:xlink="http://www.w3.org/1999/xlink" viewBox="0 0 547.58 549.48">
  <defs>
    <style>
      .cls-1 {
        fill: #4e2c1d;
      }

      .cls-2 {
        fill: #9d968d;
        opacity: .5;
      }

      .cls-3 {
        fill: #1b3b6a;
      }

      .cls-4 {
        fill: #fff;
      }

      .cls-5 {
        fill: #e52d3a;
      }

      .cls-6 {
        fill: #034c95;
      }

      .cls-7 {
        fill: #c81430;
      }

      .cls-8 {
        fill: #ffda00;
      }

      .cls-9 {
        fill: none;
        stroke: #4e2c1d;
        stroke-miterlimit: 10;
        stroke-width: .59px;
      }

      .cls-10 {
        fill: #e6b789;
      }

      .cls-11 {
        fill: #e63642;
      }

      .cls-12 {
        fill: #f3cfb2;
      }

      .cls-13 {
        clip-path: url(#clippath);
      }
    </style>
    <clipPath id="clippath">
      <path class="cls-1" d="M294.41,209.35c0-.4-.24-.76-.6-.94-.36-.17-.79-.13-1.11.11-17.59,13.34-42.34,17.02-63.05,9.39-.37-.14-.78-.06-1.07.2-.29.26-.42.66-.34,1.04,4.39,19.24,20.42,28.69,34.71,28.69,1.3,0,2.58-.08,3.84-.23,7.82-.97,14.79-4.81,19.63-10.83,5.47-6.79,8.23-16.28,7.99-27.42Z"/>
    </clipPath>
  </defs>
  <g id="Capa_1-2" data-name="Capa 1">
    <g>
      <g>
        <path class="cls-12" d="M542.13,155.03c.37,2.76-.14,5.91-1.54,9.63-5.1,13.45-16.11,22.35-34.61,28.03-.45.14-.83.39-1.12.71-3.09-.59-6.28-.61-9.36.06-.14-.97-.28-1.83-.37-2.6-.65-4.33-1.63-8.92-3.86-12.84,2.52-1.02,5.65-3.47,9.43-6.56,1.24-1,2.4-1.97,3.17-2.52,5.57-3.92,10.97-8.31,16.05-13.06l.93-.87c2.56-2.4,4.96-4.67,7.8-6.18,3.23-1.69,6.58-1.97,9.02-.75,2.32,1.14,4.02,3.82,4.45,6.95Z"/>
        <path class="cls-12" d="M518.58,209.96c3.53,8.35.16,19.07-7.5,23.87-3.9,2.46-8.57,3.27-12.51,2.21-3.68-.98-6.74-3.72-7.98-6.97,4.41-2.05,7.6-6.56,7.76-12.72.24-4.2-.95-11.44-1.99-17.65,8.76-2.05,18.71,2.97,22.22,11.27Z"/>
        <path class="cls-12" d="M510.09,132.34c.61,14.4-6.68,28.11-21.63,40.73-.24.2-.39.43-.53.67-9.14-8.45-25.25-3.98-32.18,5.22-.73.91.59,2.21,1.5,1.42,6.18-4.75,14.22-7.48,21.82-6.3,8.02,1.65,10.2,9.87,11.23,17.51l2.3,16.64c.73,4.9,1.52,10.28-1.46,14.28-2.68,3.66-8.31,3.35-11.92,1.04-4.08-2.5-6.74-7.25-8.9-12.19-2.21-4.96-3.98-10.08-5.61-15.36-.47-1.56-2.84-1.14-2.74.47,1.02,11.17,4.96,24.5,14.63,31.26,2.91,1.83,5.95,2.62,8.8,2.54,1.38,4.23,4.63,7.8,8.84,9.79-8.27,5.91-20.78,7.78-30.11,3.9-3.27-2.23-6.68-4.55-9.47-6.91-8-6.66-14.46-15.19-19.44-24.34-.61-1.02-1.1-2.07-1.58-3.13-.83-5-.77-10.1.35-15.01,3.53-15.34,16.9-29.23,32.54-31.77,1.06-.12,1.77-.65,2.21-1.32,4.29-2.66,7.15-7.27,9.3-10.75,3.6-5.87,6.83-12.03,9.61-18.32l.55-1.24c1.38-3.19,2.7-6.18,4.69-8.67,2.28-2.82,5.26-4.43,8-4.25,2.6.16,5.2,1.93,6.83,4.65,1.44,2.38,2.21,5.48,2.36,9.45Z"/>
        <path class="cls-5" d="M459.75,494.64c9.63,5.59,14.34,18.34,9.69,28.64-2.91,7.13-9.59,11.54-16.35,14.81-14.4,6.7-30.92,7.07-46.48,4.77-15.89-2.28-31.41-7.45-47.35-11.29-.73-.18-1.48.24-1.71.97-.26.75.16,1.58.93,1.81,1.34.45,2.7.91,4.08,1.36-.26,1.89-.85,3.8-2.76,4.53-.97.41-1.6.33-3.29.22l-4.39-.22c-4.96-.2-10.34-.24-15.32-.3-3.76.28-7.52-1.77-7.6-5.59-.02-.73-.24-4.67-.26-5.5-.24-5.24-.57-10.48-.97-15.72,1.34.1,2.64.1,3.82.04,27.1-1.36,54.68-3.68,80.26-13.57,4.29-1.69,8.47-3.72,12.47-6.03,1.1-.65,2.19-1.4,3.13-2.25,10.5-2.74,22.63-2.07,32.1,3.31Z"/>
        <path class="cls-5" d="M464.51,250.57c2.15,1.75,5.3,2.9,5.1,5.53-.35,2.3-1.75,3.62-4.49,2.93-4.61-.97-8.57-5.08-12.29-7.9-8.11-6.64-15.91-13.96-22.43-22.1-4.98-6.66-10.08-13.83-10.44-22.04.12-4.31,4.14-5.04,6.22-1.38.93,1.97,1.91,3.94,2.91,5.89v.02c.12.53.35.95.67,1.24,5.59,10.46,12.62,20.29,21.69,28.07,4.06,3.53,8.76,6.6,13.06,9.73Z"/>
        <path class="cls-4" d="M419.63,223.35c8.33,14.44,20.92,25.6,34.01,35.59-18.67,18.77-42.76,31.04-67.95,38.66-1.63.53-1.04,3.01.63,2.8,4.12-.67,8.17-1.6,12.19-2.68,5.06,5.53,9.34,12.13,12.88,19.01,6.34,12.37,10.68,25.43,13.43,38.84-17.92,9.47-35.91,18.81-54.5,26.61-22.83,9.63-47.43,16.37-72.58,20.33-10.48-12.7-26.81-89.42-20.42-118.59,5.87-.98,11.72-2.17,17.49-3.76,10.56-3.11,41.32-13.26,41.64-25.9.18-2.25-.79-4.33-2.34-5.63,2.32-2.07,4.49-4.27,6.48-6.62.85.08,1.69.16,2.54.22,26.81,1.87,52.51-8.06,74.33-23.3.71,1.56,1.48,3.05,2.17,4.43Z"/>
        <path class="cls-6" d="M425.71,360.24c5.44,30.84,2.76,63.4-3.29,93.87-1.65,7.68-3.64,15.28-5.44,22.91-.49,1.63.49,3.37,2.17,3.76,1.1.26,2.23-.16,2.91-.98,1.58.12,2.99.83,3.74,2.01,3.53,6.26-11.46,10.75-15.74,12.86-22.06,8.51-46.03,11.62-69.57,13.45-5.16.02-14,2.05-18.22-1.22-2.23-1.46-2.97-4.9-1.28-6.99.61-.79,1.48-1.2,2.48-1.26.57-.04,1.06-.35,1.4-.79.08-.1.12-.22.2-.33.02-.06.06-.1.08-.18.04-.1.12-.18.14-.28.95-3.62,1.46-7.31,1.73-11.01.65-10.58-.57-21.45-4.77-31.24,3.03-1.22,5.99-2.58,8.86-4.12,1.42-.71.51-2.91-.98-2.44-10.85,3.23-21.67,6.52-32.89,7.64-11.25,1.26-22.49.3-33.78-.77-1.18-.12-1.52,1.62-.39,1.95,3.25,1.08,6.56,1.93,9.91,2.6-9,9.81-11.38,24.03-11.68,36.81,0,.06.02.08.02.14-.04.93.55,1.87,1.77,1.93,1.97.06,3.43,2.01,3.39,4.21-.39,5.57-7.09,6.36-11.56,5.89l-8.92-.67c-11.88-1-23.69-2.4-35.41-4.27-16.58-2.9-33.31-6.8-47.76-15.52-5.12-3.35-2.88-9.43,2.97-8.41,1.28.47,2.99-.2,3.03-1.99.37-12.31,3.37-24.58,7.39-36.24,4.14-11.56,9.47-23,16.86-32.77.18-.24.32-.51.41-.79,39.63,6.38,80.5,4.61,119.83-2.93,39.96-7.62,76.93-25.6,112.38-44.83Z"/>
        <path class="cls-12" d="M344.37,193.47c4.08,16.52.85,34.05-8.23,44.65-14.63,17.14-39.14,27.26-74.9,30.94-.33.04-.65.14-.93.28-28.05,2.34-49.55-1.91-65.35-12.94-11.15-7.78-18.53-20.98-19.81-35.33-1.22-13.79,3.21-26.47,12.49-35.73.02-.04.02-.08.06-.1.2-.24.39-.47.51-.77.1-.28.14-.55.16-.85.02-.06.04-.1.04-.18,0-.14.02-.3.04-.45l.02-.3c.2-2.7.37-5.38.53-8.06.24-4.67.39-8.82.43-12.7,0-1.73-.02-3.39-.06-5,20.11-10.99,40.3-18.42,60.05-22.08,22.83-4.2,45.46-3.33,65.61,2.46.2,1.32.39,2.74.61,4.18.98,6.99,2.09,14.81,3.45,19.07-.14,1.28.57,2.54,1.81,3.03,11.38,4.55,19.93,15.44,23.48,29.88Z"/>
        <path class="cls-4" d="M307.83,10.06c26.43,7.84,37.17,39.71,25.8,63.77-5.44,12.29-17.1,20.54-30.45,22.28-.35.06-.63.24-.81.45l-5.81-.18c.32-.55.1-1.44-.71-1.58-2.52-.45-5.02-.83-7.54-1.14,6.2-7.01,10.03-15.97,10.5-25.13.04-.65-.43-1.24-1.1-1.32-.69-.1-1.32.39-1.42,1.08-1.22,9.3-6.11,17.88-13.04,23.77-.35.32-.59.65-.73,1-11.78-1.04-23.62-.75-35.35.69,1.46-8.02-.04-16.31-4-23.02-.35-.59-1.08-.83-1.71-.55-.69.3-1,1.08-.71,1.77,3.15,7.31,3.13,15.72.24,22.65-14.83,2.32-29.39,6.44-43.29,12.05-7.21-5.53-14.04-12.55-15.84-21.69-.14-.77-.85-1.32-1.63-1.24-.85.06-1.48.81-1.4,1.65.47,5.26,2.6,10.26,5.46,14.59,2.19,3.33,4.75,6.36,7.54,9.14-4.14,1.81-8.21,3.78-12.21,5.85-.04-.02-.08-.04-.12-.04-14.71-4.02-28.4-12.88-36.71-25.51-19.09-28.2-4.61-62.55,29.92-66.1,14.93-1.22,30.47,5.2,37.19,19.38.55,1.2,2.42.63,2.19-.71-1.91-9.55-7.66-16.21-15.21-20.27,4.96-5.4,11.8-9.26,18.97-11.88,17.65-6.24,43.15-7.11,54.03,10.83,1.99,3.35,3.37,7.15,4.35,11.21.1.37.43.67.83.71.51.02.97-.35.98-.87.3-4.35-.41-8.9-2.32-13.06-.71-1.42-1.54-2.7-2.42-3.94.06-.06.14-.1.2-.14,9.55-8.23,24.66-8.25,36.36-4.55Z"/>
        <path class="cls-5" d="M331.37,250.96c.97.47,1.54,1.73,1.44,3.11-.91,7.45-14.77,12.47-21.05,15.46-11.74,4.85-24.09,7.78-36.67,9.43-1.02.02-1.95.61-2.36,1.56t-.02.02c-.06.12-.12.26-.16.39-7.45,28.24,8.02,102.91,19.42,122.45-4.02.57-8.06,1.04-12.09,1.46-8.49-14.24-24.48-94.8-17.51-121.27.02-.04.02-.1.02-.14.63-1.52-.24-3.62-2.4-3.55-4.96.28-9.93.51-14.87.67-6.91-.12-30.43,1.36-32.24-6.7-.02-.16-.04-.33-.04-.49,0-.91.37-1.71,1.04-2.28,9.49,2.8,20.19,4.21,32.2,4.2,4.57,0,9.32-.2,14.28-.59.37.16.77.28,1.18.28.1,0,.22-.02.32-.02,30.75-3.19,53.63-11.07,69.53-23.99Z"/>
        <path class="cls-5" d="M314.02,131.13c0,.14.02.26.04.39-20.31-5.42-42.9-6.07-65.61-1.89-19.58,3.62-39.55,10.85-59.42,21.45-.12-1.24-.24-2.46-.39-3.66-.18-1.22-.33-2.44-.53-3.64-.73-4.71-1.63-9.28-2.7-13.59-.91-3.64-1.87-6.95-2.91-10.01,17.29-8.47,35.45-15.11,54.28-19.12,19.3-4.1,39.1-5.44,58.83-4.18.45.02.77-.18.97-.49l5.81.18c-.57.73-.22,2.05.95,2.11,3.53.16,6.99-.32,10.3-1.26-1.58,8.86-1.46,19.93.39,33.72Z"/>
        <path class="cls-5" d="M258.81,513.11c-.61,6.78-.98,13.65-1.22,20.42.28,8.13-9.18,6.78-14.93,7.13-2.91.1-10.56.33-13.37.39-3.35.37-5.63-2.07-5.46-5.3l-.08-1.69c1.91-.67,3.8-1.34,5.71-1.97,1.54-.49.79-2.72-.65-2.34-8.06,2.03-16.01,4.35-23.93,6.62-22.63,7.54-48.08,12.13-70.57,2.05-6.85-3.19-13.83-7.43-17-14.54-3.13-6.7-2.64-14.95,1.3-21.27,8.33-13.29,27.2-14.69,41.12-10.75l.24.18c14.91,9.45,32.62,13.77,49.71,16.96,14.81,2.7,30.04,3.7,45.02,4.2,1.28.08,2.68.06,4.1-.08Z"/>
        <path class="cls-4" d="M256.61,285.02c-5.53,29.07,8.67,101.1,17.57,120.36-27.32,2.36-54.83,1.48-81.13-2.72-4.27-8.15-7.03-17.06-8.67-26.18-5.04-28.6.53-58.5,13.06-84.51.91-1.75-1.56-3.29-2.76-1.79-3.53,4.37-6.15,9.24-8.27,14.34-8.27-4.96-17.86-7.82-27.59-7.78-10.28.08-22.45.73-29.8,9.41-.2-.02-.41-.04-.61-.04v-.02c-14.2-1.14-27.87-1.34-41.11-6.54-5.1-2.19-10.54-4.73-15.44-7.58,3.96-9.04,10.3-16.86,18.1-22.98,23.58-18.38,56.94-25.6,86.43-20.21,1.38.26,2.76.53,4.14.85,3.21,4.31,7.03,8.09,11.38,11.13,5.48,3.82,11.58,6.87,18.3,9.18-.63.97-.95,2.09-.98,3.21-.12,2.03.67,4.12,2.03,5.55,5,4.88,12.39,5.12,18.83,5.95,8.82.71,17.69.61,26.53.37Z"/>
        <path class="cls-12" d="M137.9,352.26c5,4.75.63,12.29-5.26,14.59-4.12,1.87-8.94,1.89-13.43.47-14.44-4.45-22.28-21.35-39.79-16.43-1.34.39-2.72,1.14-3.92,1.69-13.57,6.32-28.56,11.46-43.65,11.05-5.73-.57-14.85-1.5-15.84-8.35-.12-3.58,1.58-8.67,5.46-9.83,4.43-1.5,9.89-.47,14.79-.97,8.09-.57,16.64-2.84,22.45-8.84.81-.77-.12-2.21-1.18-1.75-7.33,2.82-14.56,4.77-22.22,5.26-4.79-.18-10.4-.06-15.03.04-7.98-.02-19.75-6.3-13.59-15.26,3.92-5.1,9.79-5.38,15.91-3.64l4.9,1.28c1.4.3,2.78.71,4.25.87,7.17,1.5,14.81.63,21.69-1.81.97-.32.57-1.85-.43-1.65-3.62.55-7.29.61-10.83.22-5.61-1.02-26.14-4.14-21.8-12.76,1.16-2.58,3.88-4.55,6.6-4.69,4.02-.33,9.3,3.76,13.98,4.51,6.28,1.14,12.78,1.75,19.09-.28.22-.08.39-.16.55-.28.28.28.57.55.85.79,13.26,10.68,30.19,13.43,46.44,15.46,2.72.1,5.99.59,9.36.91-1.14,2.27-1.38,6.4-1.44,7.82-.06,5.87,3.39,11.94,8.43,14.87,4.21,2.88,9.99,3.88,13.65,6.72Z"/>
        <path class="cls-5" d="M131.56,314.05c0,.39-.1.83-.3,1.24-.98,2.01-4.1,3.19-7.21,3.21-19.5-1-43.51-3.51-59.15-15.93-2.03-1.81-4.06-4.02-3.53-6.58.53-1.91,2.5-2.68,4.43-1.36,6.42,4,12.86,6.64,19.87,9.28,13.47,4.85,28.56,5.67,42.37,6.54,1.81.33,3.51,1.85,3.51,3.6Z"/>
        <path class="cls-1" d="M240.13,161.16c-5.88-9-20.68-6.4-24.17,3.57-.38,1.22-2.31.8-2.17-.46.7-10.2,13.5-15.9,22.19-11.22,2.95,1.47,5.21,4.24,6.08,7.23.17.57-.16,1.16-.73,1.33-.47.14-.95-.06-1.2-.45h0Z"/>
        <g>
          <path class="cls-1" d="M294.41,209.35c0-.4-.24-.76-.6-.94-.36-.17-.79-.13-1.11.11-17.59,13.34-42.34,17.02-63.05,9.39-.37-.14-.78-.06-1.07.2-.29.26-.42.66-.34,1.04,4.39,19.24,20.42,28.69,34.71,28.69,1.3,0,2.58-.08,3.84-.23,7.82-.97,14.79-4.81,19.63-10.83,5.47-6.79,8.23-16.28,7.99-27.42Z"/>
          <g class="cls-13">
            <path class="cls-5" d="M237.83,243.02c.29-.52.62-.99.95-1.45,6.19-8.56,15.72-13.01,24.24-12.13s15.88,7.07,21.18,16.82c-16.94,6.67-32.45,5.89-46.37-3.24Z"/>
          </g>
        </g>
        <path class="cls-1" d="M230.71,210.78c1.46,5.48-3.31,11.41-8.67,12.22-.54.1-1.06-.27-1.15-.81-.07-.39.1-.77.41-.99,1.96-1.38,3.66-2.77,4.93-4.49,1.28-1.71,2.1-3.65,2.78-5.96.22-.85,1.53-.82,1.71.03h0Z"/>
        <path class="cls-1" d="M301.35,212.81c-5.56,1.14-11.2-3.97-11.69-9.37-.06-.55.33-1.04.88-1.11.4-.05.76.15.96.46,1.26,2.03,2.56,3.81,4.2,5.18,1.64,1.38,3.52,2.3,5.79,3.12.84.27.72,1.58-.13,1.71h0Z"/>
        <path class="cls-1" d="M291.03,154.88c-5.88-9-20.68-6.4-24.17,3.57-.38,1.22-2.31.8-2.17-.46.7-10.2,13.5-15.9,22.19-11.22,2.95,1.47,5.21,4.24,6.08,7.23.17.57-.16,1.16-.73,1.33-.47.14-.95-.06-1.2-.45h0Z"/>
        <g>
          <g>
            <path class="cls-1" d="M311.92,378.47c2.56,10.06-12.01,13.89-14.89,4-2.25-9.73,11.94-13.55,14.89-4ZM300.42,381.57c1.6,5.06,8.96,2.95,7.9-2.13-1.48-5.4-9.3-3.33-7.9,2.13Z"/>
            <path class="cls-5" d="M308.32,379.44c1.06,5.08-6.3,7.19-7.9,2.13-1.4-5.46,6.42-7.52,7.9-2.13Z"/>
            <path class="cls-1" d="M305.13,352.06c1.89,10.22-12.9,13.1-15.13,3.03-1.62-9.85,12.78-12.74,15.13-3.03ZM293.43,354.41c1.28,5.16,8.76,3.55,8.02-1.6-1.1-5.48-9.04-3.94-8.02,1.6Z"/>
            <path class="cls-5" d="M301.44,352.81c.75,5.14-6.74,6.76-8.02,1.6-1.02-5.53,6.91-7.07,8.02-1.6Z"/>
            <path class="cls-1" d="M300.79,325.53c1.44,10.28-13.47,12.49-15.24,2.34-1.14-9.93,13.35-12.15,15.24-2.34ZM289.02,327.34c1.04,5.2,8.59,3.92,8.09-1.24-.87-5.51-8.86-4.33-8.09,1.24Z"/>
            <path class="cls-1" d="M299.04,299c.93,10.36-14.06,11.84-15.34,1.62-.69-9.95,13.91-11.5,15.34-1.62ZM287.18,300.24c.79,5.26,8.39,4.35,8.13-.85-.61-5.55-8.65-4.75-8.13.85Z"/>
            <path class="cls-5" d="M297.11,326.1c.49,5.16-7.05,6.44-8.09,1.24-.77-5.57,7.23-6.76,8.09-1.24Z"/>
            <path class="cls-5" d="M295.32,299.4c.26,5.2-7.35,6.11-8.13.85-.51-5.59,7.52-6.4,8.13-.85Z"/>
          </g>
          <path class="cls-9" d="M299.04,299c.93,10.36-14.06,11.84-15.34,1.62-.69-9.95,13.91-11.5,15.34-1.62Z"/>
        </g>
        <path class="cls-7" d="M228.81,529.76c-6.14,5.23-20.17,7.02-23.45,8.19-22,7.97-47.33,12.3-69.48,2.37-5.01-2.31-10.03-5.28-13.79-9.39,2.16,1.36,4.41,2.54,6.67,3.58,2.86,1.29,5.78,2.33,8.75,3.16,19.9,5.59,45.97,2.54,91.31-7.91Z"/>
        <path class="cls-7" d="M269.29,503.14c.09,3.33-2.23,6.4-5.19,7.69-.86.4-1.76.7-2.66.91.02,5.48-.12,10.93-.26,16.39-.09,1.65,0,4.88-.28,6.5-1.65,8.31-10.61,7.42-17.1,7.62-4.24.09-8.47.08-12.71,0-3.4.28-8.24-2.43-8.58-5.82h1.45c.6.02,1.2.03,1.8.03,3.64.05,7.28.05,10.91-.02,6.48-.2,15.44.68,17.1-7.62.27-1.62.19-4.87.27-6.5.07-3.05.15-6.1.2-9.14,0-.37,0-.73.02-1.09,0-.85.02-1.7.03-2.56,0-.31,0-.61,0-.91l.63.05c4.47.48,11.17-.32,11.56-5.88.04-2.21-1.42-4.16-3.39-4.22-.39-.02-.73-.14-.98-.31.02-.11.03-.22.03-.33.23.4.7.59,1.14.54h.02c.45-.05.88-.36.97-.95.05-.33.1-.67.15-1.01,2.9.67,4.94,3.7,4.87,6.64Z"/>
        <path class="cls-7" d="M470.33,523.19c-3.19,7.88-10.56,12.96-17.93,16.48-14.76,6.99-31.74,7.61-47.58,4.94-13.71-2.32-26.78-6.7-39.83-10.84-.01,0-.02,0-.02.02.29,4.98-2.81,8.43-8.23,8.23-4.19.1-8.76.16-12.93.06-1.42-.03-5.1-.11-6.49-.19-2.34-.05-4.85-.46-6.91-1.82-1.7-1.02-2.91-2.64-3.58-4.47,0-.01,2.32-2.08,2.32-2.06-.34,5.25,29.75,6.66,29.46-1.53-.01-.3,26.81,5,42.09,7.29,15.29,2.39,30.68,1.07,44.86-5.53,10.79-4.96,17.3-15.99,16.32-28.65-.39-4.7-2.35-9.14-5.34-12.75-1.45-1.78-3.17-3.36-5.07-4.66-.49-.31,14.26,7.56,16.69,11.3,4.69,7.05,5.57,16.43,2.17,24.2Z"/>
        <path class="cls-10" d="M144.99,357.34c-.06,2.43-.67,4.61-1.68,6.52-1.69,1.8-3.74,3.19-5.94,4.2-10.57,4.92-22.39-.41-30.69-7.1-3.14-2.4-6.08-4.87-9.46-6.81-4.2-2.28-9.5-3.03-14.12-1.72-.98.3-2.45,1.08-3.42,1.54-9.6,4.59-19.79,8.21-30.25,10.22-10.49,2.57-30.32,2.41-35.14-7.17.84.33,1.72.62,2.63.88.79.22,1.61.41,2.44.58,7.51,1.51,16.47.94,22.42-.51,10.48-2.02,20.66-5.63,30.25-10.23.97-.45,2.43-1.23,3.42-1.54,4.6-1.31,9.92-.55,14.12,1.73.62.35,1.24.73,1.84,1.13,2.35,1.54,4.54,3.3,6.81,5.05.27.2.54.42.81.62,1.68,1.35,3.5,2.65,5.42,3.82,0,0,.02,0,.03.02,3.2,1.93,6.69,3.51,10.28,4.4,4.94,1.22,10.08,1.14,14.96-1.14,2.57-1.19,4.93-2.87,6.75-5.14.91-1.07,1.63-2.32,2.13-3.67.67-1.79.96-3.76.78-5.64,3.32,2.19,5.85,5.42,5.62,9.97Z"/>
        <path class="cls-10" d="M511.73,144.78c-.94.87-1.84,1.76-2.73,2.65l-.86.86c-.16.16-.31.3-.46.45-.73,2.28-1.67,4.55-2.8,6.78-3.39,6.73-8.6,13.22-15.57,19.46-.24.21-.39.48-.46.77-.14.16-.25.34-.32.54-1.42-1.74-3.16-3.14-5.26-3.99-.13-.05-.25-.1-.37-.15-.16-.25-.32-.5-.49-.75.26.21.57.31.89.31.34,0,.67-.11.95-.37,4.16-3.72,7.73-7.59,10.7-11.58,7.47-10.01,11.14-20.75,10.72-31.64-.1-2.53-.42-4.78-.97-6.78-.43-1.65-1.04-3.12-1.78-4.44,0-.01-.02-.03-.03-.04,2.77.93,5.32,3.1,7,6.06,1.67,2.95,2.57,6.62,2.75,11.23.14,3.57-.16,7.11-.9,10.63Z"/>
        <path class="cls-10" d="M491.33,222.52c-1.89,2.56-5.06,3.35-8.12,2.92-1.56-.21-3.09-.74-4.4-1.53-.1-.05-.2-.12-.29-.18-.48-.3-.94-.64-1.38-1,.43.02.86,0,1.28-.03,1.06-.07,2.1-.28,3.08-.62,1.96-.66,3.73-1.83,5.04-3.6,3.83-4.97,3.22-11.56,2.34-17.18l-1.48-9.71-.45-2.96-.56-3.67c-.34-2.82-.97-5.85-2.03-8.68,3.21,2.8,4.86,7.33,5.73,11.76.21,1.05.37,2.1.5,3.1.01.12.03.23.04.35l2.3,16.35c.76,4.99,1.5,10.54-1.6,14.68Z"/>
        <path class="cls-2" d="M453.65,258.94c-16.57,16.65-39.33,30.71-63.54,37.28,20.71-8.92,44.25-25.2,59.37-40.52,1.38,1.09,2.78,2.18,4.17,3.24Z"/>
        <path class="cls-11" d="M319.09,161.15c.05.25.1.49.15.72-.09-.23-.15-.47-.15-.72Z"/>
        <path class="cls-2" d="M424.83,355.57c-2.59,1.37-5.18,2.73-7.78,4.09-5.19-28.09-14.35-48.2-25.03-60.35,2.18-.47,4.35-1.01,6.5-1.59,5.06,5.54,9.33,12.13,12.88,19.01,6.34,12.37,10.67,25.43,13.43,38.84Z"/>
        <path class="cls-11" d="M398.52,297.72c-2.15.58-4.32,1.12-6.5,1.59-.11-.14-.23-.27-.35-.4-1.16-1.3,1.54-.8,6.85-1.19Z"/>
        <path class="cls-11" d="M422.43,454.1c6.05-30.47,8.73-63.03,3.29-93.87-2.6,1.41-5.22,2.82-7.84,4.21-.26-1.62-.54-3.22-.83-4.78,2.6-1.36,5.19-2.72,7.78-4.09-2.76-13.41-7.09-26.47-13.43-38.84-3.54-6.87-7.82-13.47-12.88-19.01,47.1,46.84,33.31,122.49,18.77,178.06,1.71-7.21,3.57-14.41,5.14-21.67Z"/>
        <path class="cls-10" d="M511.07,233.83c-3.89,2.46-8.56,3.27-12.5,2.2-1.55-.41-3-1.14-4.24-2.1.08-.11.15-.22.22-.33.26.04.53.07.8.08h0c.43.03.85.04,1.26.04,3.99,0,8.19-1.03,11.74-3.5,10.82-7.53,10.75-14.77,9.76-21.96,7.11,10.04-.22,21.29-7.06,25.57Z"/>
        <path class="cls-10" d="M494.26,240.05c-8.27,5.91-20.78,7.78-30.12,3.9-.18-.12-.36-.25-.54-.37-.27-.24-2.92-1.55-3.21-1.77,9.31,1.52,24.01-.35,27.29-7.15,1.2,1.06,5.09,4.68,6.58,5.39Z"/>
        <path class="cls-7" d="M470.86,256.38c-.35,2.31-2.79,4.02-5.53,3.33-1.43-.31-10.81-6.02-12.14-6.8.85-.2,6.67-3.88,7.18-5.61,1.72,1.14,10.63,7.16,10.48,9.08Z"/>
        <path class="cls-10" d="M540.6,164.66c-5.11,13.45-16.11,22.35-34.61,28.03-.45.14-.83.39-1.12.71-.75-.15-1.5-.25-2.25-.32,16.47-7.17,26.85-17.43,32.27-31.71,1.93-5.09,2.63-9.55,2.11-13.59.24.09.47.19.69.3,2.32,1.14,4.01,3.83,4.45,6.96.38,2.76-.14,5.91-1.54,9.63Z"/>
        <path class="cls-2" d="M125.09,305.98c8.3-17.49,43.88-14.73,61.88-2.76-.19.43-.38.86-.55,1.3-8.27-4.96-17.86-7.81-27.6-7.78-.91,0-1.84.02-2.78.04-9.54.21-20.31,1.64-27.02,9.38"/>
        <path class="cls-2" d="M337.02,74.02c-4.99,11.27-15.21,19.15-27.17,21.72,31.28-20.61,28.17-56.52,22.43-70.68,10.08,13.54,12.29,32.98,4.74,48.96Z"/>
        <path class="cls-10" d="M319.48,162.93c-1.16-.8-2.35-1.53-3.58-2.19-1.19-.65-2.42-1.24-3.68-1.75-1.29-3.82-2.47-12.05-3.45-18.97-.03-.25-.07-.48-.1-.72-.14-1-.27-1.96-.4-2.9-.04-.28-.09-.56-.13-.84,2.32.53,4.62,1.12,6.88,1.77.2,1.32.39,2.74.61,4.18.22,1.59.45,3.22.68,4.83.33,2.24.67,4.46,1.03,6.52.44,2.5.9,4.79,1.4,6.61.11.57.21,1.13.32,1.66,0,0,0,.03,0,.03,0,.25.06.49.15.72.08.37.16.72.24,1.06Z"/>
        <path class="cls-7" d="M314.06,131.53c-2.2-.59-4.43-1.12-6.69-1.6-1.67-11.78-2.13-21.86-1.4-30.13.03-.38.05-.77.09-1.14,2.59-.11,5.12-.55,7.57-1.25-1.58,8.86-1.46,19.93.39,33.72,0,.14.02.26.03.39Z"/>
        <path class="cls-10" d="M340.8,242.2c-14.64,17.14-39.14,27.26-74.91,30.94-.33.04-.65.15-.92.28-9.49.79-18.23.83-26.26.1.19-.1.39-.15.61-.18,2.52-.26,5-.54,7.42-.88.38-.04.76-.09,1.14-.15,37.34-5.01,63.39-16.66,79.48-35.46,10.84-12.69,14.73-33.6,9.89-53.27-1.02-4.12-2.37-8-4.04-11.6,7.52,5.65,13.11,14.58,15.81,25.56,4.07,16.52.85,34.05-8.23,44.65Z"/>
        <path class="cls-1" d="M547.41,154.32c-.69-4.97-3.45-9.06-7.34-10.99-1.18-.6-2.47-.99-3.83-1.17-.32-.06-.65-.09-.98-.11-2.92-.2-6.09.5-9.09,2.08-3.46,1.84-6.26,4.45-8.94,6.99l-.92.85c-2.82,2.62-5.73,5.12-8.71,7.51,5.52-8.79,8.2-18,7.8-27.36-.2-4.88-1.22-8.8-3.12-11.97-2.52-4.19-6.77-6.98-11.08-7.21-4.43-.26-9.08,2.07-12.45,6.23-2.44,3.01-3.96,6.5-5.43,9.86l-.54,1.2c-2.67,6.09-5.81,12.03-9.27,17.7-1.95,3.18-4.34,7.01-7.55,8.98h-.14c-20.5,3.65-36.44,22.79-37.66,43.17-3.01-2.43-7.48-2.91-10.63-.1-3.54,3.81-3.54,8.57-2.25,13.22-22.67,14.58-44.97,24.76-71.93,25.11l-.23,3.9c26.8,1.87,52.51-8.06,74.32-23.3.72,1.55,1.48,3.06,2.17,4.43,7.45,12.9,18.28,23.19,29.85,32.35,1.38,1.09,2.78,2.18,4.17,3.24-16.57,16.65-37.41,28.2-59.49,35.91-2.8.98-5.63,1.9-8.46,2.76-1.63.53-1.04,3.01.63,2.79,1.91-.31,3.81-.67,5.7-1.09,2.18-.47,4.35-1.01,6.5-1.59,5.06,5.54,9.33,12.13,12.88,19.01,6.34,12.37,10.67,25.43,13.43,38.84-2.59,1.37-5.18,2.73-7.78,4.09-15.35,8.04-30.82,15.84-46.72,22.52-22.83,9.63-47.43,16.37-72.58,20.32-10.48-12.71-26.8-89.41-20.42-118.58,5.87-.99,11.72-2.17,17.49-3.77,10.55-3.11,41.32-13.25,41.64-25.9.18-2.25-.79-4.33-2.35-5.64l-2.73,2.35c.97.47,1.54,1.73,1.43,3.11-.91,7.45-14.77,12.47-21.06,15.46-11.73,4.84-24.08,7.78-36.67,9.44-1.02.02-1.96.61-2.37,1.55t-.02.02c-.06.12-.12.26-.16.39-7.45,28.25,8.02,102.91,19.42,122.45-4.01.57-8.05,1.04-12.09,1.46-8.49-14.24-24.48-94.8-17.51-121.27.02-.03.02-.09.02-.14.63-1.51-.24-3.62-2.4-3.54-4.97.27-9.93.51-14.88.67-6.91-.11-30.43,1.37-32.24-6.69-.02-.15-.03-.33-.03-.49l-3.6-.24c-.12,2.02.67,4.12,2.02,5.55,5,4.88,12.39,5.12,18.83,5.95,8.83.71,17.68.61,26.53.38-5.53,29.07,8.67,101.1,17.57,120.36-27.33,2.37-54.84,1.48-81.13-2.72-4.28-8.15-7.03-17.06-8.67-26.18-4.03-22.87-1.27-46.56,6.4-68.45.16-.47.33-.94.5-1.41,1.8-5,3.86-9.89,6.16-14.65.91-1.75-1.55-3.29-2.76-1.79-3.22,4-5.69,8.41-7.71,13.04-.19.43-.38.86-.55,1.3-8.27-4.96-17.86-7.81-27.6-7.78-.91,0-1.84.02-2.78.04-9.54.21-20.14,1.44-26.85,9.18-.06.06-.11.13-.17.2-.2-.03-.41-.04-.61-.04v-.02c-1.3-.1-2.59-.2-3.87-.29-.23-.02-.46-.03-.69-.05-.5-.03-1-.07-1.49-.11-12.05-.85-23.71-1.64-35.05-6.09-5.1-2.19-10.54-4.73-15.44-7.58,3.96-9.04,10.3-16.86,18.1-22.99,23.58-18.38,56.94-25.6,86.42-20.2l.77-4.24c-.67-.18-1.37-.38-2.05-.53-34.57-7.76-78.75,4.15-100.65,33.06-2.78,3.84-5.04,8.02-6.85,12.37-4.41-2.13-10.25.12-11.37,5.29-.65,2.66.06,5.14,1.36,7.29-2.91.68-5.99.82-9.08.53-2.56-.26-5.26-.65-7.8-1.3-4.57-1.46-8.68-4.71-13.96-4.46-7.25.42-13.53,7.37-11.7,14.74.3.94.75,1.77,1.24,2.52-1.18-.02-2.42.02-3.72.24-14.34,3.36-17.68,20.97-3.35,27.12,1.85.88,3.8,1.43,5.76,1.77-5.38,5.64-6.66,16.13.21,21.13,17.11,11.44,45.72,1.24,62.71-6.63,5.7-3.44,13.02-2.24,18.35,1.44.29.2.57.41.85.62,3.88,2.82,7.6,5.94,11.72,8.5,2.72,1.69,5.63,3.13,8.86,4.06,8.8,3.16,21.16-.08,25.62-8.48,1.02-1.9,1.62-4.08,1.68-6.52.23-4.55-2.3-7.78-5.62-9.97-1.84-1.21-3.91-2.1-5.9-2.72-10.43-3.37-14.92-9.85-12.82-20.77.02-.11.04-.23.07-.35.04-.14.06-.3.06-.44,2.35.09,4.66,0,6.77-.47,3.22-.71,5.98-2.28,7.73-5.4.57-1.13.77-2.29.71-3.41-.1-1.91-1.02-3.78-2.38-5.18.97-.94,2.06-1.73,3.23-2.42,2.2-1.29,4.71-2.16,7.34-2.75.05,0,.1-.03.15-.03,4.6-.98,9.57-1.1,14.55-1.22,6.05-.09,11.95,1.19,17.68,3.13,2.18.73,4.32,1.56,6.43,2.44.62.26,1.22.51,1.83.78-1.08,2.97-2.05,5.99-2.92,9-7.98,28.82-8.29,61.29,6.09,88.2-7.42,10.43-12.59,22.1-16.63,34.15-3.7,11.49-6.38,23.32-6.81,35.44-1.12.02-2.22.2-2.97.39-5.29,1.63-7.01,6.4-5.73,10.67-6.42-1.36-13.04-1.4-19.52-.24-19.01,2.6-32.02,21.69-23.75,39.9,3.66,8.29,11.64,13.49,19.55,17.16,15.69,7.1,33.46,7.41,50.11,4.3,13.59-2.52,26.19-7.82,39.02-12.53-.02.44-.04.77-.04.77-.49,3.68,1.78,7.45,5.42,8.45,1.87.56,5.25.29,7.13.47,6,.15,11.85.26,18.08-.08,1.75-.14,3.53-.61,5.16-1.54,2.48-1.34,4.41-3.98,4.87-6.81.39-1.9.14-5.18.32-7.05.08-5.55.09-11.11-.08-16.69,2.66-.71,5.11-2.02,6.69-4.33,3.29-4.25,1.51-11.38-3.48-13.02,1-5.79,1.84-11.52,3.32-17.01,1.6-6.07,3.96-11.76,7.25-17.1.16-.26.22-.53.22-.8,14.23,2.25,28.93.73,42.56-4.08.79,2.86,1.48,5.76,1.97,8.69,1.71,9.92,1.93,20.11.86,30.11-1.49.5-2.99,1.5-3.6,2.37-3.29,3.86-2.19,10.01,1.73,12.92,1.3,1.08,2.85,1.79,4.49,2.25-.06,5.5-.08,10.99.02,16.49.16,2.97-.35,6.93.96,9.71,1.9,4.37,6.93,6.54,11.37,6.34,1.42.06,5.2.06,6.68.12,4.3.1,9.02.06,13.36-.03,5.46.33,9.14-3.43,9.08-8.39,28.73,9.62,60.76,19.84,89.7,6.03,7.78-3.71,15.58-9.12,18.95-17.45,3.62-8.29,2.68-18.29-2.32-25.82-8.68-13.07-26.12-16.15-40.93-13.07.14-.44.26-.87.32-1.34.92-5.12-3.18-9.2-7.8-9.81,1.58-6.65,3.25-13.29,4.67-19.99,1.12-6.83,3.23-16.76,3.86-23.61,2.07-15.64,2.8-32.17,2.01-47.88-2.01-30.94-9.68-63.23-29.79-87.6-.03-.04-.07-.09-.1-.13,1.08-.35,2.17-.73,3.24-1.11,19.17-6.8,36.81-18.22,51.16-32.53,5.17,2.84,12.42,3.8,15.36-2.23,1.89-3.76,1.24-6.69-.6-9.12,6.23.42,12.59-.85,18.4-3.09,3.37-1.4,7-3.2,9.3-6.2,0,0,0-.02.02-.03h0c.39.03.76.09,1.15.09,3.98,0,8.08-1.2,11.72-3.49.64-.4,1.26-.84,1.85-1.31,8.46-6.61,11.94-19.2,7.74-29.14-1.19-2.79-2.95-5.3-5.11-7.42-.8-.79-1.66-1.52-2.55-2.19-1.06-.8-2.19-1.52-3.35-2.16,1.01-.37,1.99-.74,2.95-1.13.18-.07.35-.15.53-.21,9.74-4,17.15-9.17,22.5-15.75,3.01-3.69,5.36-7.83,7.11-12.47,1.73-4.57,2.35-8.56,1.85-12.23ZM124.25,345.55c4.22,2.87,9.99,3.88,13.65,6.71.26.24.49.5.69.75,3.86,4.76-.36,11.66-5.95,13.84-2.29,1.04-4.79,1.51-7.34,1.47-2.03-.02-4.1-.36-6.1-.99-3.74-1.15-7.04-3.15-10.18-5.38-1.55-1.09-3.05-2.25-4.55-3.39,0,0-.02,0-.03-.02-2.06-1.57-4.11-3.11-6.23-4.44-2.69-1.68-5.5-3.04-8.62-3.68-.18-.04-.36-.08-.54-.1-2.9-.52-6.07-.43-9.64.58-1.34.39-2.72,1.14-3.92,1.69-13.58,6.33-28.56,11.47-43.65,11.05-4.9-.49-12.3-1.24-14.94-5.75-.44-.76-.75-1.62-.9-2.6-.12-3.58,1.57-8.66,5.46-9.83,4.16-1.4,9.21-.59,13.88-.89h.03c.29-.03.59-.05.88-.08,8.1-.56,16.64-2.84,22.45-8.84.26-.25.34-.56.3-.86-2.35.43-4.71.79-7.08,1.08-5.45,1.74-10.9,2.92-16.62,3.28-4.78-.17-10.4-.06-15.03.04-6.15-.02-14.55-3.75-15.26-9.56-.21-1.73.26-3.65,1.67-5.7,3.92-5.1,9.79-5.37,15.92-3.64l4.9,1.28c1.4.29,2.78.71,4.25.86,5.6,1.17,11.49.9,17.07-.44h0c1.56-.38,3.11-.83,4.61-1.37.53-.17.65-.72.48-1.14-1.59,0-3.19-.03-4.76-.12-2.36.14-4.7.08-6.99-.18-5.21-.95-23.28-3.71-22.36-11,.07-.56.26-1.15.56-1.77,1.16-2.58,3.88-4.55,6.6-4.69,4.01-.33,9.29,3.77,13.98,4.51,6.28,1.14,12.78,1.75,19.08-.27.22-.08.39-.16.56-.27.27.27.57.55.85.79,13.25,10.67,30.19,13.43,46.44,15.46.36.02.73.03,1.11.07,2.48.16,5.32.57,8.24.85-1.14,2.26-1.37,6.4-1.43,7.81-.03,3.13.94,6.32,2.61,9.06,1.46,2.4,3.47,4.45,5.82,5.82ZM131.26,315.29c-.98,2.01-4.09,3.19-7.21,3.21-4.02-.2-8.23-.48-12.53-.89-16.51-1.57-34.21-5.18-46.62-15.05-2.03-1.81-4.06-4.02-3.53-6.58.53-1.9,2.5-2.67,4.43-1.36,6.42,4,12.86,6.64,19.87,9.28,12.46,4.47,26.3,5.52,39.22,6.34,1.06.07,2.1.13,3.14.2,1.82.34,3.51,1.85,3.51,3.61,0,.39-.1.82-.3,1.24ZM257.59,533.54c.28,8.14-9.17,6.78-14.93,7.13-2.91.1-10.55.34-13.37.4-3.12.34-5.32-1.75-5.45-4.65-.03-.21-.02-.43,0-.65l-.08-1.69c1.91-.67,3.8-1.34,5.71-1.97,1.54-.5.79-2.72-.65-2.34-8.06,2.02-16.02,4.35-23.94,6.62-22.63,7.54-48.08,12.13-70.57,2.04-6.86-3.19-13.82-7.42-17-14.53-3.13-6.69-2.64-14.94,1.31-21.27,8.33-13.3,27.2-14.69,41.12-10.75.08.06.15.12.23.18,14.91,9.45,32.62,13.77,49.71,16.96,14.65,2.67,29.72,3.68,44.56,4.18.15,0,.32,0,.47.02,1.28.08,2.67.06,4.09-.08-.61,6.77-.98,13.65-1.22,20.42ZM459.75,494.64c9.62,5.59,14.34,18.33,9.68,28.64-2.91,7.13-9.59,11.54-16.34,14.81-14.4,6.69-30.92,7.07-46.48,4.76-15.9-2.28-31.42-7.44-47.35-11.28-.73-.18-1.48.23-1.72.96-.26.74.16,1.57.92,1.81,1.34.45,2.7.91,4.08,1.36-.26,1.9-.85,3.8-2.76,4.53-.97.41-1.6.33-3.29.21l-4.4-.21c-4.96-.2-10.33-.24-15.32-.3-3.77.27-7.52-1.78-7.6-5.59-.03-.73-.24-4.67-.26-5.5-.24-5.23-.57-10.48-.96-15.71,1.33.09,2.64.09,3.82.04,27.1-1.37,54.68-3.69,80.26-13.58,4.3-1.69,8.47-3.72,12.47-6.02,1.1-.66,2.19-1.4,3.13-2.25,10.49-2.74,22.63-2.08,32.11,3.3ZM422.43,454.1c-1.57,7.27-3.43,14.47-5.14,21.67,0,0,0,.03-.02.04,0,.02,0,.03,0,.04-.09.38-.18.77-.27,1.15-.5,1.63.5,3.36,2.17,3.76,1.1.26,2.22-.15,2.91-.98,1.58.12,3,.83,3.74,2.01,3.53,6.27-11.46,10.76-15.73,12.86-22.07,8.51-46.03,11.62-69.57,13.46-5.16.02-14,2.05-18.22-1.22-2.22-1.46-2.97-4.91-1.28-6.99.61-.79,1.48-1.2,2.48-1.26.57-.03,1.07-.35,1.4-.79.08-.1.12-.21.2-.33.02-.06.06-.1.08-.18.04-.09.12-.18.14-.27.95-3.63,1.46-7.31,1.73-11.02.65-10.57-.57-21.44-4.76-31.24,3.03-1.22,5.99-2.58,8.86-4.12,1.42-.71.51-2.91-.98-2.44-4.85,1.44-9.7,2.9-14.58,4.18-6.03,1.56-12.1,2.85-18.31,3.47-4.6.52-9.21.66-13.82.57-2.77-.04-5.52-.18-8.29-.37-3.55-.23-7.11-.55-10.67-.88-.33-.03-.66-.06-.99-.09-1.18-.12-1.52,1.61-.39,1.96.24.08.48.15.72.23,3.02.97,6.09,1.75,9.19,2.37-9,9.81-11.38,24.03-11.68,36.81,0,.06.03.08.03.14,0,.1,0,.2,0,.31v.02s0,.06.02.09c.08.49.32.93.76,1.21.26.17.59.29.98.31,1.97.06,3.43,2.01,3.39,4.22-.39,5.57-7.09,6.36-11.56,5.88l-.63-.05-8.29-.61c-11.88-1.01-23.7-2.41-35.41-4.28-16.58-2.89-33.3-6.79-47.76-15.52-5.12-3.35-2.88-9.44,2.97-8.41,1.28.47,3-.2,3.03-1.99.38-12.31,3.37-24.58,7.39-36.24,4.14-11.56,9.48-23,16.86-32.77.17-.24.31-.51.41-.79,39.63,6.38,80.5,4.6,119.83-2.94,37.03-7.06,71.48-23.01,104.54-40.62,2.62-1.39,5.23-2.8,7.84-4.21,5.44,30.84,2.76,63.4-3.29,93.87ZM465.12,259.04c-1.43-.31-2.82-.91-4.15-1.69-2.91-1.72-5.58-4.27-8.14-6.2-8.11-6.64-15.92-13.97-22.43-22.1-4.99-6.66-10.08-13.83-10.44-22.04.12-4.32,4.14-5.05,6.23-1.38.93,1.97,1.91,3.94,2.92,5.89v.02c.11.53.35.95.67,1.24,5.59,10.46,12.63,20.29,21.69,28.07,4.06,3.53,8.76,6.6,13.06,9.73.58.48,1.25.91,1.89,1.34,1.72,1.14,3.36,2.27,3.21,4.19-.35,2.31-1.75,3.62-4.49,2.93ZM464.14,243.96c-.18-.12-.36-.25-.54-.37-3.1-2.12-6.29-4.31-8.93-6.55-8-6.66-14.46-15.18-19.44-24.35-.61-1.02-1.1-2.07-1.58-3.13-.82-5-.77-10.1.36-15,3.53-15.34,16.9-29.23,32.53-31.77,1.07-.11,1.78-.65,2.21-1.32,4.29-2.66,7.15-7.27,9.29-10.75,3.6-5.87,6.84-12.04,9.61-18.32l.56-1.25c1.37-3.19,2.7-6.18,4.68-8.67,2.29-2.82,5.26-4.43,8-4.25,2.6.16,5.2,1.93,6.83,4.65,1.44,2.39,2.21,5.48,2.37,9.46.62,14.4-6.68,28.1-21.62,40.72-.24.2-.4.44-.54.67-9.14-8.45-25.25-3.98-32.18,5.22-.73.91.6,2.2,1.5,1.42,6.18-4.75,14.22-7.48,21.82-6.3,8.02,1.66,10.2,9.87,11.23,17.51l2.31,16.64c.73,4.9,1.51,10.28-1.46,14.28-2.67,3.66-8.31,3.35-11.91,1.04-4.08-2.5-6.74-7.25-8.91-12.19-2.2-4.96-3.98-10.08-5.61-15.36-.48-1.55-2.84-1.14-2.74.48,1.02,11.16,4.96,24.5,14.64,31.25,2.91,1.84,5.95,2.62,8.8,2.54.89,2.74,2.57,5.2,4.78,7.13,1.2,1.06,2.58,1.96,4.06,2.66-8.27,5.91-20.78,7.78-30.12,3.9ZM518.58,209.96c.38.91.68,1.85.91,2.81,1.83,7.81-1.59,16.77-8.42,21.06-3.89,2.46-8.56,3.27-12.5,2.2-1.55-.41-3-1.14-4.24-2.1-1.7-1.29-3.01-2.99-3.73-4.87,4.41-2.05,7.6-6.56,7.75-12.72.24-4.19-.94-11.44-1.99-17.65.5-.11.99-.2,1.49-.27,4.22-.61,8.61.34,12.35,2.43,3.69,2.06,6.75,5.23,8.39,9.11ZM540.6,164.66c-5.11,13.45-16.11,22.35-34.61,28.03-.45.14-.83.39-1.12.71-.75-.15-1.5-.25-2.25-.32-2.37-.24-4.77-.13-7.1.38-.14-.96-.27-1.84-.38-2.6-.65-4.33-1.63-8.92-3.86-12.84,2.53-1.02,5.65-3.47,9.44-6.56,1.24-1,2.41-1.96,3.18-2.52,5.57-3.92,10.96-8.31,16.04-13.06l.93-.87c2.56-2.4,4.96-4.66,7.8-6.18,2.94-1.54,5.97-1.91,8.33-1.05.24.09.47.19.69.3,2.32,1.14,4.01,3.83,4.45,6.96.38,2.76-.14,5.91-1.54,9.63ZM263.48,455.13c-1.18-.12-1.52,1.61-.39,1.96.24.08.48.15.72.23.2-.69.43-1.39.67-2.09-.33-.03-.66-.06-.99-.09Z"/>
        <path class="cls-3" d="M261.03,496.64c0,.1,0,.2,0,.31-.31-1.56-3.16-17.43,3.43-39.13,3.02.97,5.42,1.25,8.52,1.87-9,9.81-11.69,24.04-11.99,36.82,0,.06.03.08.03.14Z"/>
        <path class="cls-7" d="M131.23,314.06c0,.36-.1.76-.3,1.15-.98,1.86-4.09,2.97-7.21,2.98-4.02-.19-8.23-.44-12.53-.82,2.78.08,5.53-.13,8.21-1.12,2.69-.95,4.49-2.93,5.05-5.09.06-.21.1-.42.13-.63,1.06.06,2.1.12,3.14.18,1.82.32,3.51,1.72,3.51,3.35Z"/>
        <path class="cls-3" d="M422.43,454.1c-1.57,7.27-3.43,14.47-5.14,21.67,0,0,0,.03-.02.04,5.99-45.19,5.37-82.3.61-111.38,2.62-1.39,5.23-2.8,7.84-4.21,5.44,30.84,2.76,63.4-3.29,93.87Z"/>
        <path class="cls-3" d="M266.49,502.78c-.39,5.57-7.09,6.36-11.56,5.88l-.63-.05c0-.9,12.19-1.4,7.82-10.36.26.17.59.29.98.31,1.97.06,3.43,2.01,3.39,4.22Z"/>
        <path class="cls-1" d="M274.43,32.25s-.02-.08-.03-.12c-.05-.24-.11-.48-.17-.72-.07-.3-.15-.59-.23-.89-.05-.2-.11-.41-.17-.61-.08-.28-.16-.56-.26-.84-.03-.11-.07-.22-.1-.33-.09-.27-.19-.55-.29-.82-.09-.26-.2-.53-.29-.79-.23-.58-.47-1.15-.73-1.72.85,2.06,1.51,4.24,2.06,6.5.04.15.12.28.22.39h0s0-.03-.02-.05ZM350.12,192.07c-2.24-9.1-6.29-16.97-11.72-23.06-4.08-4.58-8.94-8.15-14.39-10.5-.5-1.7-1-4.15-1.47-6.87-.6-3.54-1.16-7.52-1.64-10.9-.55-3.86-1.02-7.24-1.46-9.47-2.05-14.76-2.09-26.67-.1-35.35.06-.24.06-.48.06-.71,8.15-3.96,15.01-10.93,19.03-19.03,10.66-20.44,6.53-45.89-9.02-61.26-4.24-4.19-9.33-7.64-15.21-10.02-1.36-.56-2.77-1.06-4.21-1.49-14.02-4.37-31.42-3.76-42.57,6.92-19.14-18.06-60.41-10.64-75.86,8.49-.04.05-.09.09-.12.15-.08.11-.15.24-.22.36-13.9-4.76-31.47-2.41-43.05,5.71-7.87,4.95-13.42,11.55-16.79,18.97-6.95,15.32-4.6,34.15,5.76,49.23,3.24,4.8,7.16,9.08,11.56,12.77.51.44,1.02.85,1.55,1.26.17.15.36.29.54.43,7.69,5.96,16.71,10.26,26.11,12.65.06.17.12.33.18.5,1.15,3.21,2.19,6.68,3.14,10.59,1.05,4.18,1.91,8.58,2.62,13.13.18,1.19.36,2.37.51,3.54.55,4.14.79,8.63.75,13.75-.04,3.81-.18,7.88-.44,12.47-.14,2.66-.33,5.32-.51,7.98-8.73,9.09-13.53,21.41-13.53,34.46,0,1.57.08,3.15.21,4.73.73,8.23,3.29,16.1,7.31,23.02l-.77,4.24c1.37.26,2.76.53,4.13.85,3.21,4.31,7.03,8.1,11.38,11.13,5.47,3.83,11.58,6.87,18.3,9.18-.63.96-.95,2.08-.98,3.21l3.6.24c0-.91.38-1.72,1.04-2.29,3.36.99,6.88,1.81,10.55,2.45,6.69,1.17,13.89,1.76,21.65,1.74,4.57,0,9.32-.2,14.28-.59.38.16.77.27,1.19.27.09,0,.21-.02.32-.02,12.03-1.25,22.86-3.22,32.53-5.93,15.05-4.2,27.32-10.2,36.99-18.06l2.73-2.35c2.32-2.07,4.49-4.27,6.48-6.62.85.09,1.69.16,2.54.22l.23-3.9c8.15-12.09,10.84-29.68,6.75-46.25ZM182.49,120.18c17.29-8.46,35.45-15.11,54.27-19.12,19.31-4.1,39.1-5.44,58.83-4.18.45.02.77-.18.97-.5.32-.55.1-1.43-.71-1.57-2.52-.45-5.02-.83-7.54-1.14,6.2-7.01,10.02-15.98,10.49-25.13.04-.65-.44-1.25-1.1-1.32-.69-.09-1.32.39-1.42,1.08-1.22,9.3-6.11,17.88-13.04,23.77-.36.32-.59.65-.73,1.01-11.78-1.05-23.62-.75-35.36.68,1.46-8.01-.03-16.3-4-23.02-.35-.59-1.08-.83-1.72-.55-.68.29-1,1.08-.71,1.77,3.15,7.31,3.13,15.72.24,22.65-14.83,2.32-29.38,6.44-43.29,12.05-7.21-5.53-14.04-12.54-15.83-21.68-.14-.77-.85-1.32-1.64-1.25-.85.06-1.48.81-1.39,1.66.47,5.26,2.6,10.26,5.46,14.59,2.19,3.33,4.74,6.36,7.54,9.15-4.13,1.81-8.21,3.77-12.21,5.85-.04-.03-.08-.04-.12-.04-4.32-1.18-8.55-2.78-12.58-4.76-.03,0-.04-.02-.06-.03-.03,0-.05-.03-.08-.03-8.46-4.18-16.04-10.11-21.72-17.48-.79-1.03-1.55-2.1-2.27-3.19-19.09-28.2-4.61-62.56,29.91-66.1,7.59-.62,15.35.73,22.01,4.08,2.47,1.24,4.78,2.75,6.88,4.53h0c3.21,2.72,5.93,6.08,7.93,10.07,0,0,0,0,0,.02.12.23.23.46.34.69.02.03.03.07.06.1,0,0,0,0,0,.02.62,1.04,2.35.46,2.12-.83-1.01-5.05-3.09-9.28-5.95-12.76-2.34-2.86-5.22-5.21-8.45-7.05-.26-.17-.53-.32-.8-.46,0,0,.03-.03.03-.03,4.96-5.38,11.78-9.23,18.94-11.84,15.27-5.41,36.43-6.78,48.9,4.58h0c.26.24.5.48.75.73,1.63,1.6,3.1,3.43,4.36,5.52.88,1.49,1.65,3.06,2.3,4.71h0c.85,2.07,1.51,4.24,2.06,6.51.04.15.12.28.22.39h0c.15.17.37.29.6.32.3,0,.57-.11.75-.32.14-.15.22-.33.23-.56.19-2.78-.03-5.63-.71-8.4-.38-1.58-.92-3.14-1.61-4.65-.71-1.42-1.54-2.7-2.43-3.94.06-.06.15-.1.2-.14,9.55-8.24,24.65-8.26,36.35-4.55,1.79.53,3.51,1.17,5.15,1.92,6.51,2.93,11.85,7.43,15.92,12.89,10.08,13.54,12.29,32.98,4.74,48.96-4.99,11.27-15.21,19.15-27.17,21.72-1.08.23-2.17.42-3.28.56-.35.06-.63.24-.81.45-.56.73-.21,2.05.95,2.11.91.04,1.83.03,2.73-.02,2.59-.11,5.12-.55,7.57-1.25-1.58,8.86-1.46,19.93.39,33.72,0,.14.02.26.03.39-2.2-.59-4.43-1.12-6.69-1.6-18.52-3.9-38.67-4.01-58.92-.29-19.57,3.62-39.54,10.84-59.42,21.44-.11-1.24-.23-2.46-.39-3.66-.17-1.22-.33-2.44-.53-3.64-.73-4.71-1.63-9.28-2.7-13.59-.91-3.65-1.87-6.95-2.91-10.01ZM336.14,238.12c-14.64,17.14-39.14,27.26-74.91,30.94-.33.04-.65.15-.92.28-9.49.79-18.23.83-26.26.1-15.7-1.42-28.64-5.75-39.09-13.05-11.15-7.78-18.54-20.97-19.82-35.34-1.22-13.78,3.21-26.46,12.49-35.73.02-.03.02-.08.06-.09.2-.24.39-.47.51-.77.09-.27.14-.56.15-.85.02-.06.04-.1.04-.18,0-.14.02-.3.03-.45l.03-.3c.2-2.7.37-5.37.53-8.05.24-4.67.39-8.82.44-12.71,0-1.73-.03-3.38-.06-5,20.11-10.99,40.3-18.41,60.05-22.07,20.27-3.72,40.37-3.46,58.72.69,2.32.53,4.62,1.12,6.88,1.77.2,1.32.39,2.74.61,4.18.22,1.59.45,3.22.68,4.83.33,2.24.67,4.46,1.03,6.52.44,2.5.9,4.79,1.4,6.61.1.38.21.76.32,1.1-.02.19-.03.37,0,.56,0,0,0,.03,0,.03,0,.25.06.49.15.72.26.76.85,1.41,1.66,1.72,2.73,1.09,5.29,2.54,7.67,4.32,7.52,5.65,13.11,14.58,15.81,25.56,4.07,16.52.85,34.05-8.23,44.65ZM274.43,32.25s-.02-.08-.03-.12c-.05-.24-.11-.48-.17-.72-.07-.3-.15-.59-.23-.89-.05-.2-.11-.41-.17-.61-.08-.28-.16-.56-.26-.84-.03-.11-.07-.22-.1-.33-.09-.27-.19-.55-.29-.82-.09-.26-.2-.53-.29-.79-.23-.58-.47-1.15-.73-1.72.85,2.06,1.51,4.24,2.06,6.5.04.15.12.28.22.39,0-.02,0-.03,0-.05Z"/>
        <path class="cls-10" d="M117.76,340.06c-.81-.39-1.61-.83-2.39-1.35-.32-.17-.61-.37-.91-.58-4.47-3.1-6.33-9.1-6.17-14.7,0-.37.03-.73.05-1.08,2.48.16,5.32.57,8.24.85-1.14,2.26-1.37,6.4-1.43,7.81-.03,3.13.94,6.32,2.61,9.06Z"/>
        <g>
          <path class="cls-1" d="M262.95,247.84c-14.29,0-30.33-9.45-34.71-28.69-.09-.38.04-.78.34-1.04.29-.26.69-.29,1.07-.2,21.2,4.86,45.96,1.11,63.05-9.39.34-.21.75-.28,1.11-.11.36.17.59.54.6.94.24,11.15-2.52,20.63-7.99,27.42-4.84,6.02-11.81,9.86-19.63,10.83-1.26.16-2.54.23-3.84.23ZM230.79,220.58c5.16,18.43,22,26.61,35.73,24.91,12.42-1.54,25.49-11.3,25.76-34.02-17.48,12.36-41.18,15.87-61.49,9.11Z"/>
          <path class="cls-1" d="M262.95,248.13c-13.68,0-30.47-9.05-35-28.91-.11-.49.05-.99.43-1.32.33-.29.81-.39,1.33-.27,21.06,4.83,45.72,1.16,62.83-9.35.46-.28.97-.33,1.39-.12.46.22.76.68.77,1.19.24,11.22-2.54,20.77-8.05,27.61-4.89,6.08-11.93,9.96-19.82,10.93-1.26.16-2.57.24-3.88.24ZM229.27,218.16c-.18,0-.36.04-.51.17-.21.19-.31.47-.24.75,4.46,19.55,20.97,28.46,34.43,28.46,1.28,0,2.56-.08,3.8-.23,7.74-.96,14.64-4.76,19.44-10.72,5.42-6.74,8.16-16.16,7.92-27.23,0-.29-.17-.55-.43-.68-.33-.16-.66,0-.83.1-17.24,10.58-42.08,14.28-63.27,9.42-.09-.02-.2-.04-.31-.04ZM263.05,245.99c-12.91,0-27.77-8.34-32.53-25.34l-.15-.53.53.17c20.3,6.75,43.76,3.28,61.23-9.07l.47-.33v.58c-.27,22.96-13.62,32.78-26.02,34.31-1.15.14-2.33.21-3.52.21ZM231.23,221.03c5.29,17.88,22.04,25.81,35.26,24.17,12.05-1.49,25.01-10.99,25.49-33.16-17.42,12.08-40.59,15.51-60.75,8.99Z"/>
        </g>
        <g>
          <path class="cls-1" d="M336.98,290.96c.29.13.48.34.57.62.15.46.13.85-.07,1.15-.2.3-.59.54-1.18.7-1.32.38-2.35.7-3.08.96-.73.26-1.69.62-2.86,1.12.3,2.75.64,5.49,1.04,8.23.15,1,.34,2.15.57,3.45.23,1.3.44,2.35.63,3.13.1.41.03.79-.21,1.13-.24.34-.59.61-1.03.8-.47.2-.87.25-1.2.15-.33-.1-.55-.33-.67-.69-.11-.33-.23-.89-.37-1.7-.14-.8-.28-1.65-.41-2.55-.12-.9-.23-1.67-.35-2.32-.18-1.1-.35-2.21-.48-3.32-.14-1.11-.26-2.16-.36-3.16-.03-.22-.05-.48-.08-.77-.03-.29-.06-.61-.1-.97-1.38.7-2.43,1.37-3.17,1.95-.73.58-1.21,1.13-1.44,1.62-.23.49-.26.98-.09,1.47.15.45.44.81.86,1.07.09.07.15.15.18.26.09.25,0,.57-.24.96-.24.39-.53.67-.87.85-.24.13-.46.17-.66.12-.36-.07-.7-.26-1.02-.57-.32-.31-.57-.73-.75-1.25-.37-1.11-.29-2.23.26-3.35.55-1.12,1.57-2.29,3.06-3.45,1.49-1.16,3.51-2.37,6.04-3.51,1.57-.7,2.83-1.2,3.78-1.52.95-.32,1.8-.55,2.55-.68.47-.08.85-.05,1.14.08Z"/>
          <path class="cls-1" d="M347.4,299.96c.16.17.28.4.37.69.22.7.14,1.17-.24,1.39-.76.51-1.66.91-2.67,1.22.11,1.28-.13,2.4-.7,3.34-.57.95-1.37,1.56-2.39,1.87-.86.26-1.66.29-2.4.07-.74-.21-1.38-.59-1.91-1.16-.53-.56-.92-1.23-1.18-2.02-.34-1.06-.44-2.09-.29-3.07.15-.98.51-1.85,1.09-2.58.58-.73,1.31-1.25,2.2-1.54,1.09-.36,2.09-.26,2.99.3.9.56,1.59,1.38,2.05,2.46.66-.22,1.42-.58,2.27-1.05.11-.06.2-.1.29-.12.19-.04.36.01.52.18ZM342.24,305.24c.22-.47.28-1.07.17-1.81-.54-.17-1-.46-1.39-.87-.39-.41-.67-.89-.84-1.43-.07-.23-.12-.46-.15-.7-.04.01-.07.02-.11.04-.57.18-.96.62-1.17,1.29-.21.67-.15,1.5.16,2.49.25.78.59,1.32,1.03,1.63.44.32.87.4,1.28.28.46-.14.8-.44,1.02-.91Z"/>
          <path class="cls-1" d="M355.34,300.43c.16.16.28.41.38.72.18.6.18,1.09.01,1.45-.37.88-.84,1.62-1.41,2.24-.57.62-1.3,1-2.21,1.16-1.25.22-2.37-.18-3.33-1.22-.97-1.04-1.74-2.48-2.31-4.32-.55-1.77-.95-3.84-1.2-6.22-.25-2.37-.19-4.49.19-6.33.37-1.85,1.17-2.93,2.39-3.21.69-.16,1.32.05,1.92.63.59.57,1.08,1.48,1.45,2.71.53,1.76.68,3.9.45,6.39-.23,2.5-.82,5.03-1.74,7.63.28.58.58.98.89,1.2.31.22.65.29,1.02.22.59-.11,1.04-.37,1.38-.79.34-.42.72-1.11,1.14-2.07.11-.23.27-.37.48-.4.18-.03.35.04.52.21ZM347.48,289.06c-.04,1.31.06,2.89.3,4.76.24,1.87.6,3.63,1.08,5.29.49-1.94.77-3.83.84-5.68.07-1.85-.11-3.49-.55-4.92-.34-1.12-.71-1.63-1.11-1.54-.33.07-.51.77-.56,2.07Z"/>
          <path class="cls-1" d="M353.47,292.72c-.39-.24-.66-.62-.81-1.14-.16-.52-.09-.99.19-1.4.29-.42.72-.67,1.3-.76.52-.08.99,0,1.4.22.41.23.68.59.83,1.09.18.6.14,1.11-.13,1.51-.26.4-.7.64-1.31.73-.6.09-1.09,0-1.47-.23ZM356.05,304.32c-.62-.64-1.1-1.52-1.44-2.66-.2-.67-.38-1.55-.53-2.63-.15-1.08-.24-2.09-.25-3.04-.01-.5.06-.85.22-1.07.16-.21.47-.35.94-.42.72-.1,1.16.11,1.31.62.11.38.24,1.27.37,2.67.15,1.7.31,2.85.49,3.44.13.45.29.79.48,1.02.18.23.41.33.68.3.25-.03.52-.25.78-.66.27-.42.6-1.07.99-1.94.11-.23.27-.35.48-.37.18-.01.35.07.51.25.16.18.28.42.38.75.18.61.18,1.1.01,1.45-.85,1.95-1.89,2.97-3.1,3.1-.92.09-1.69-.17-2.31-.81Z"/>
        </g>
        <path class="cls-10" d="M251.14,205.05c.06-.48,8.43-10.45,18.71-2.19-6.76-1.88-12.44-1.7-18.71,2.19Z"/>
        <path class="cls-1" d="M249.3,203.77c2.92-8.24,16.79-10.59,21.73-3.05.35.56.17,1.3-.39,1.64-.45.28-1.02.22-1.4-.11-2.69-2.08-5.96-2.65-9.34-2.12-3.42.56-6.83,1.71-8.78,4.46-.58.98-2.17.25-1.82-.82h0Z"/>
        <path class="cls-1" d="M330.62,320.47c-.31,0-.62-.12-.85-.36-.46-.47-.46-1.22.01-1.68.34-.34,8.6-8.3,27.45-10.08.66-.06,1.24.42,1.3,1.07.06.66-.42,1.24-1.07,1.3-17.93,1.69-25.92,9.33-26,9.41-.23.23-.53.34-.83.34Z"/>
        <circle class="cls-1" cx="362.02" cy="309.32" r="1.31"/>
        <path class="cls-1" d="M238.27,182.14c-.17.02-.33.05-.5.05-2.18,0-3.94-1.76-3.94-3.94v-.27c0-1.96,1.43-3.57,3.3-3.88-.44-1.62-1.05-3.16-2-4.56-.86-1.28-2.26-2.8-3.73-3.27-2.07-.67-5.14-.15-6.65,1.41-1.51,1.56-2.5,2.91-2.11,12.1.19,4.5.89,9.32,2.41,13.56,1.1,3.09,3.45,6.09,6.71,6.45,2.81.31,5.38-1.98,6.37-4.63.99-2.65.77-5.58.53-8.39-.13-1.54-.26-3.09-.39-4.63Z"/>
        <path class="cls-1" d="M288.2,176.55c-2.18,0-3.94-1.76-3.94-3.94v-.27c0-1.91,1.36-3.5,3.16-3.86-.74-2.62-2.03-5.33-4.24-7.02-2.22-1.69-5.35-1.55-7.44.27-2.26,1.96-2.73,5.03-2.86,7.85-.07,1.52-.08,3.05-.02,4.57.21,5.52.87,12.32,4.45,16.8,1.3,1.63,3.14,2.95,5.22,3.08,1.21.07,2.43-.28,3.42-.98,1.63-1.15,2.49-3.12,2.95-5.06.86-3.69.78-7.67.23-11.57-.3.07-.61.12-.93.12Z"/>
      </g>
      <g>
        <path class="cls-8" d="M208.46,131.24c-.08-.45.26-.76.88-1.11.37-.25.38-.73.27-1.39-.33-1.98-.67-3.95-1-5.92-.23-1.36-.4-1.82-.79-1.69-.05.02-.11.04-.16.05-.58.2-1.02.46-1.18.84-.16.37-.28.9-.36,1.4-.16.91-.37,1.43-.9,1.61-.55.19-1.04-.2-1.22-1.23-.28-1.67.25-3.7,1.22-4.05.37-.13.66-.05.85.16,2.53-.88,5.07-1.72,7.61-2.52.12-.31.33-.56.72-.68.96-.3,2.1,1.2,2.39,2.88.17,1.04-.16,1.71-.71,1.87-.53.16-.88-.17-1.32-.89-.24-.4-.5-.79-.77-1.04-.26-.25-.74-.21-1.33-.02-.05.02-.11.03-.16.05-.39.12-.39.64-.16,2.01.33,1.98.67,3.96,1.01,5.94.11.66.29,1.06.7,1.06.66-.04,1.05.04,1.13.49.13.8-1.12,1.42-3.17,2.08-2.07.67-3.39.88-3.53.09Z"/>
        <path class="cls-8" d="M218.17,122.57c-.65-3.82,2.02-7.44,5.93-8.5,4.07-1.1,7.32,1.16,7.94,4.85.65,3.87-1.96,7.24-5.98,8.29-4.04,1.05-7.28-1.04-7.89-4.64ZM226.63,124.99c1.4-.36,2.11-1.78,1.8-3.63-.42-2.47-2.57-5.69-4.88-5.06-1.4.38-2.09,1.82-1.78,3.67.42,2.46,2.55,5.62,4.86,5.03Z"/>
        <path class="cls-8" d="M242.56,123.2c-1.08.21-2.16.42-3.25.64-1.2.24-2.11.48-2.77.62-1.66.36-2.51.34-2.63-.37-.08-.49.31-.82.81-1.04.32-.2.27-.68.17-1.33-.38-2.24-.75-4.48-1.13-6.72-.11-.67-.28-1.1-.64-1.15-.54-.02-.89-.14-.97-.58-.13-.79,1.13-1.35,3.01-1.76,2-.44,3.16-.42,3.29.35.08.48-.23.72-.76.98-.35.2-.3.72-.19,1.37.34,2.03.68,4.05,1.02,6.08.23,1.39.39,1.8,1.11,1.65.19-.04.38-.08.57-.11,1.02-.2,1.75-.45,1.98-.84.2-.35.29-1.02.38-1.55.13-.88.35-1.45.92-1.56.55-.1,1.13.39,1.33,1.58.29,1.75-.26,3.82-1.33,4.02-.39.07-.69-.04-.91-.29Z"/>
        <path class="cls-8" d="M246.24,121.6c-.07-.44.21-.69.71-.93.3-.18.28-.65.16-1.32-.38-2.27-.76-4.54-1.14-6.81-.11-.67-.24-1.13-.58-1.19-.54-.05-.9-.19-.97-.63-.13-.8,1.04-1.27,2.91-1.59,1.87-.32,3.13-.25,3.26.55.07.45-.21.69-.73.92-.3.16-.26.64-.15,1.32.38,2.28.76,4.55,1.13,6.83.11.68.23,1.15.57,1.21.56.06.91.21.99.65.14.82-1.04,1.23-2.91,1.53-1.87.3-3.12.29-3.26-.53Z"/>
        <path class="cls-8" d="M257.66,120.81c-.59.07-1.08.16-1.62.23-1.32.18-2.19.1-2.31-.61-.09-.52.32-.8.8-.99.3-.19.28-.64.16-1.32-.37-2.25-.75-4.51-1.12-6.76-.11-.68-.24-1.13-.58-1.21-.52-.05-1-.22-1.09-.71-.12-.69.67-1.05,1.99-1.24.52-.07,1.11-.12,1.65-.19.98-.13,2.39-.41,3.23-.51,2.62-.32,4.73.6,5.08,2.76.26,1.56-.65,2.45-1.42,2.94,1.2.11,2.81,1.03,3.13,2.99.44,2.66-2.09,4.02-4.39,4.28-1.73.19-2.76.25-3.52.35ZM258.83,113.2c1.23-.15,1.67-.98,1.48-2.15-.17-1.06-.77-1.94-2.11-1.77-.36.04-.74.15-.92.35-.14.15-.05.57.04,1.14.14.83.28,1.67.41,2.5.38-.01.76-.04,1.1-.08ZM258.77,118.72c.26.19.69.21,1.21.15,1.37-.16,1.96-.99,1.75-2.26-.23-1.36-1.18-2.03-2.63-1.85-.3.04-.73.11-1.1.17.14.87.29,1.74.43,2.61.09.55.18,1.06.34,1.18Z"/>
        <path class="cls-8" d="M266.31,113.34c-.65-3.95,2.03-7.03,5.94-7.29,4.07-.27,7.3,2.65,7.92,6.46.65,4-1.95,6.85-5.97,7.07-4.03.23-7.29-2.52-7.9-6.24ZM274.78,117.49c1.4-.08,2.11-1.35,1.8-3.27-.41-2.55-2.57-6.21-4.88-6.05-1.41.1-2.09,1.39-1.78,3.3.42,2.54,2.55,6.14,4.86,6.02Z"/>
        <path class="cls-8" d="M284.47,118c-.07-.45.25-.64.89-.83.4-.15.37-.64.27-1.28-.14-.89-.29-1.79-.43-2.68-.28-.53-.58-.98-1.12-1.59-2.35-2.72-3.23-3.61-3.96-3.81-.57-.11-.96-.31-1.04-.79-.13-.81,1.05-1.21,3.27-1.26,2.27-.05,3.46.26,3.59,1.06.07.42-.18.64-.68.83-.25.11-.22.29.02.77.27.56,1.47,1.99,2.34,2.78.57-.86,1.24-2.24,1.39-3.03.06-.27.05-.47-.25-.57-.65-.19-1-.39-1.07-.82-.12-.77.9-1.08,2.62-1.06,1.64.02,2.65.39,2.76,1.11.07.44-.21.67-.92.84-.74.22-1.42,1.53-2.68,4.02-.29.58-.44.98-.54,1.44.15.93.3,1.85.45,2.78.1.66.23,1.13.68,1.28.7.17,1.07.4,1.14.84.13.84-1.1,1.05-3.18,1.05-2.06,0-3.4-.22-3.53-1.06Z"/>
      </g>
    </g>
  </g>
</svg>