<?xml version="1.0" encoding="UTF-8"?>
<svg id="Capa_2" xmlns="http://www.w3.org/2000/svg" version="1.1" viewBox="0 0 347.8 457">
  <!-- Generator: Adobe Illustrator 29.3.1, SVG Export Plug-In . SVG Version: 2.1.0 Build 151)  -->
  <defs>
    <style>
      .st0 {
        fill: #fcf7e8;
      }

      .st1 {
        fill: #ea0029;
      }
    </style>
  </defs>
  <path class="st0" d="M308.8,196.6l-.2-.3-2.1-3.1c-.6-.9-1.3-1.9-2.1-3-.1-2.3-.2-4.4,0-6.5,1.1-11.7,6.1-23.4,11.3-34.3l3.4-6.9c11.1-22.5,24.9-50.6,18.1-80v-.2c-7.7-31.9-38.5-46.4-63.9-46.4h-1s-2.7,0-2.7,0h-.2c-4.6.3-9,.9-13.2,1.9h-.2c-20.3,5.2-35.6,18.5-46.6,32.7-1.1-3.5-2.4-7-4-10.4-8.9-18.5-23.5-31.4-41.3-36.3-5-1.4-9.8-2-15.6-2s-1.8,0-1.8,0h-.4c-30.8,1.6-55.4,28.1-66.1,53.8-15.7,37.8-7.9,76.3,3.4,104.9-14.6,1.7-28.9,7.1-40.8,15.5-20,14-34,36.1-37.6,59.3-3.2,20.7,1.7,40.2,14.1,56.4l.2.2c.6.8,1.3,1.6,1.9,2.3-1.5,7.5-1.3,14.5-.8,19.7v.3c3.2,27.3,21.3,51.4,46.3,61.4,2.9,1.2,5.8,2.2,8.8,3-.2,1.6-.3,3.3-.4,5-.4,15.5,6.3,31.8,18.5,44.8,16.9,18,43,28.3,71.7,28.3s1.6,0,1.6,0h4.3c5.5-.4,11.4-1.1,17.1-2.4h.1c18.5-4.1,35.5-13.6,48-27v-.2c6.8-7.3,12-15.5,15.1-23.9.7-2,1.5-4.3,2.1-7,.4-.2,1.4-.7,1.4-.7,46.5-24.2,75.6-74.9,74.1-129-.7-26.2-7.8-50.5-20.5-70.3Z"/>
  <path class="st1" d="M166.7,438.2c-24,.3-45.6-7.9-59.2-22.3-8.8-9.4-13.7-20.9-13.5-31.5,0-4.6,1.3-9.9,4.3-11,.2,0,.4,0,.5,0,2.4,0,3.6,1.6,4.2,3,.9,1.8,1.5,3.5,2.2,5.3,1.1,2.9,2.3,5.9,4.1,8.7,3.6,6,8.7,11.2,15.1,15.4,11.8,7.4,27.1,11.4,43.1,11.2h3.8c15.6-1,29.9-6.3,41.7-15.5,1.6-1.2,3.2-2.6,4.7-4.1l8.8-9.1-12.3,3.1c-6.7,1.7-13.8,2.7-21.3,3.2-1.8,0-3.5.1-5.3.2-2.5,0-5,0-7.5-.2-11.9-.8-21.1-2.5-29.1-5.4-5.9-2-14.6-4.9-16.9-10l-.7-2,1.2-1.1c.9-.4,1.9-.7,3.2-.8,1.1,0,2.5.1,4,.3l6.1.9c3.3.5,6.7,1.1,10.1,1.4,5.2.5,10.4.8,15.6.7,1.8,0,3.6,0,5.5-.2,6.7-.4,12.7-1.2,18.3-2.3,26.9-5.1,51.1-18.9,68.2-38.7,28.8-33.5,33.9-85.4,13.1-132.4-1.5-3.3-3.3-7.3-3.6-10.3-.8-3.3-1.3-5.6-1.6-7.3-2.1-12.9-.2-27.4,5.5-43.6,2.2-6.3,4.7-12.4,7.3-18.5,3.8-9,7.7-18.3,10.2-28,2.3-8.2,4.6-17.8,1.9-26.4-2.6-7.9-9.9-13.3-19.9-14.9-2.1-.3-4.2-.3-6.1-.3-14.9.9-26.5,11.9-33.6,21-8.6,10.9-15.6,24.5-20.8,40.2-4.2,12.7-6.9,26.4-7.9,40.5-.6,7.6-.3,15.1,0,22.4l.3,8.6,2.9.5c17.3,2.9,32.2,12.6,40.9,26.7,6.4,10.5,9.3,22.2,8.2,33.8-.3,5.7-3.6,14.7-5.9,14.8-.4,0-1.2-.4-2.1-1.3-1.4-1.3-1.5-4.5-1.7-7.4l-.2-2.8c-.8-7.1-2.5-13.6-5.1-19.2-6.9-14.8-20.6-24.7-36.7-26.5-2.3-.3-4.5-.3-6.7-.3-13.5.7-24.6,7.7-34.8,14.9-13,9.2-24.4,16.4-38.1,21.8l-2.3.9c-5.8,2.2-12.3,4.7-17.2,9.4-4.6,4.3-8.4,11.6-.6,21.9,7.6,9.4,20.4,14.6,35.4,14.5,0,0,2.3,0,2.3,0,1.7,0,3.5-.2,5.3-.6,12.7-1.8,25.6-8.3,40.4-20.4,3.1-2.4,6-5,9-7.7,2-1.8,4.1-3.6,6.2-5.4,1.8-1.5,4.1-3.3,5.6-3.4h0c0,0,2.2,1.1,2.2,1.1,1.3,2,.1,4.8-2.1,8.6-2.2,3.6-5.1,7.5-8.7,12l-5.2,6.4,8.3-.6c2.8-.2,5.6-.6,8.4-1.1,3.9-.7,8.1-1.8,12.3-3.5,2.7-1,4.4-1.6,5.7-1.6.1,0,.2,0,.3,0,1,0,1.6.1,2.1.4l.2.2.5.2h0c1.4,2.9-.8,6.3-3.3,8.7-3.4,3.1-7.5,5.4-12,7-3.8,1.3-8.1,2.1-12.4,2.3h-1.9c-4,0-8.1-.3-12.3-1-1.5-.3-3.1-.7-4.8-1.1l-1.7-.4-1.4,1.1c-6.7,5.2-13.3,9.2-20,12.1-7.7,3.2-15.6,5-23.6,5.4h-2.8c-11.9.2-23.1-2.4-32.4-7.6l-1.4-.8-1.5.6c-6.4,2.4-12.9,3.8-19.4,4.1h-4.2c-7.6,0-15.4-1.6-23.1-4.6l-6.5-2.6,1.8,6.8c.9,3.3,1.7,6.6,3.1,9.9,4.2,10.1,11.4,18.5,20.2,23.6,7.3,4.3,16.1,6.8,25.3,7.4,2.5.1,4.9,0,7.3,0h.2c2.2,0,4.3,0,6.6,0,2.1,0,3.6.3,4.7,1.1l.2,1.1,1.4,1.2c-.7,7.3-11.9,11.4-18.7,12.9-2.4.5-5.1.8-7.8,1h-2.6c-7.2.2-14.8-1.3-22.1-4.3-18.7-7.5-32.3-25.6-34.6-46.1-.5-5.4-.5-13.4,2.5-20.8l.9-2.3-1.8-1.7c-2.4-2.2-4.7-4.6-6.6-7.1-9.2-12.1-12.9-26.6-10.5-42.1,2.8-18.3,14-35.8,29.9-46.9,10.4-7.4,23.2-11.8,36.1-12.6h2.6c2.7-.1,5.4,0,8.1.3,1.4.1,3.7.5,6.5,1.2l7.7,2-3.6-7.1c-1.9-3.7-3.8-7.6-5.6-11.4-12-25.9-23.2-64.4-7.9-101,8.2-19.5,27.2-41.1,49.8-42.2.1,0,.3,0,.4,0,4.8,0,8.1.4,11.4,1.3,12.4,3.4,22.8,12.7,29.3,26.3,5.7,12.2,6.8,26,7.8,39.4l.4,5.4c0,1.3.2,2.7.4,4.2l1.8,18.6,5.4-16c1.2-3.5,2.5-7,3.9-10.2,7.4-16.8,24-46.3,52.5-53.5,3.2-.8,6.6-1.2,9.9-1.4h2.2c18.5-.3,40.8,9.6,46.2,31.9,5.2,23-6.4,46.7-16.7,67.6l-3.4,7c-6,12.6-11.8,26.3-13.1,41.1-.3,4.4-.1,8.9.5,14.1v1.1c.1,0,.9.8.9.8,1.6,1.9,3,4,4.3,5.8l1.8,2.6c10.8,16.8,16.9,37.9,17.5,60.6,1.3,47.1-23.8,91-64,111.9-2.7,1.4-5.8,2.8-8.7,4.1l-2.7,1.2.6,2.9c.7,3.3-1,8.1-1.6,9.7-2.3,6.1-6.1,12.2-11.2,17.7-9.9,10.6-23.5,18.2-38.4,21.5-4.7,1-9.5,1.6-14,1.8h-3.9ZM110,192.8c-10,.5-18.5,2-25.9,4.3-21.2,7-37.5,26-39.8,46.1-2.6,21.7,15.1,38.6,33.2,43.5,3.5,1,7.1,1.6,10.6,1.9l7.1.6-3.8-6c-4.2-6.7-8.4-17.2-4.7-28.8,3.5-10.5,12.3-19.6,24.7-25.6,4-1.9,8.1-3.5,12.2-5.1,2.5-1,5-1.9,7.4-2.9,3.6-1.5,7.2-3.5,10.6-5.5l5.1-3-5-3.1c-4.6-2.8-8.7-6.1-10.9-7.9-2.5-2-4.5-4-6.5-6.2l-.7-.8-1.5-.4c-4.2-1-7.7-1.1-10.8-1.1h-.2s-1,.1-1,.1ZM148.6,42.1c-6.8.2-13.4,5-17.8,9-29.8,27.4-19.9,74-14.3,92.8,3.5,11.6,9.3,28.7,19.4,43.2,3.9,5.8,8.9,11.1,15.6,16.8l1.3,1,2,1.3,2.2-1.1c10.2-6.7,19.5-12.4,30.3-15.2,1.7-.5,3.5-.8,5.2-1.1l4.2-.7-1.4-4c-7.8-21.8-11.6-45.4-15.2-69.7-.8-5.4-1.4-10.9-1.9-16.5-1.2-11.8-2.4-24-6.3-35.3-2.3-6.4-7.6-17.5-18.3-20.1-1.3-.3-2.5-.5-3.7-.4h-.2s-1.2.1-1.2.1Z"/>
</svg>